<svg width="582" height="470" viewBox="0 0 582 470" fill="none" xmlns="http://www.w3.org/2000/svg">
<path d="M93.6719 45.8906L94.3281 45.3047C94.9688 46.0391 95.6172 46.4062 96.2734 46.4062C96.8672 46.4062 97.3203 46.1641 97.6328 45.6797C97.9453 45.1797 98.2422 44.2734 98.5234 42.9609L99.9062 36.5391C100.406 34.3047 101.523 32.6953 103.258 31.7109C104.992 30.7109 107.422 30.1172 110.547 29.9297L101.828 19.5234C99.6719 17.0078 97.3438 15.4844 94.8438 14.9531V14.0156C96 14.1094 97.5078 14.1562 99.3672 14.1562C101.742 14.1562 104.102 14.1094 106.445 14.0156V14.9531C105.336 14.9844 104.469 15.2266 103.844 15.6797C103.234 16.1172 102.93 16.7344 102.93 17.5312C102.93 18.7344 103.672 20.2188 105.156 21.9844L107.969 25.4062C109.297 26.9375 110.477 28.0469 111.508 28.7344C112.539 29.4219 113.695 29.7969 114.977 29.8594V19.1016C114.977 18.1797 114.938 17.4766 114.859 16.9922C114.781 16.5078 114.602 16.1094 114.32 15.7969C114.039 15.4844 113.688 15.2812 113.266 15.1875C112.844 15.0781 112.219 15.0078 111.391 14.9766V14.0156C113.109 14.1094 115.523 14.1562 118.633 14.1562C122.055 14.1562 124.586 14.1094 126.227 14.0156V14.9766C125.414 15.0078 124.789 15.0781 124.352 15.1875C123.93 15.2812 123.57 15.4844 123.273 15.7969C122.992 16.1094 122.812 16.5156 122.734 17.0156C122.656 17.5 122.617 18.1953 122.617 19.1016V29.8594C123.883 29.7969 125.031 29.4297 126.062 28.7578C127.094 28.0703 128.289 26.9531 129.648 25.4062L132.461 21.9844C133.93 20.25 134.664 18.7656 134.664 17.5312C134.664 16.7344 134.352 16.1172 133.727 15.6797C133.117 15.2266 132.258 14.9844 131.148 14.9531V14.0156C133.492 14.1094 135.852 14.1562 138.227 14.1562C140.086 14.1562 141.602 14.1094 142.773 14.0156V14.9531C140.258 15.4844 137.93 17.0078 135.789 19.5234L127.047 29.9297C130.172 30.1172 132.602 30.7109 134.336 31.7109C136.07 32.6953 137.188 34.3047 137.688 36.5391L139.094 42.9609C139.359 44.2578 139.648 45.1562 139.961 45.6562C140.273 46.1562 140.734 46.4062 141.344 46.4062C141.984 46.4062 142.625 46.0391 143.266 45.3047L143.922 45.8906C143.078 46.8594 142.148 47.5625 141.133 48C140.133 48.4531 138.938 48.6797 137.547 48.6797C135.703 48.6797 134.25 48.2969 133.188 47.5312C132.125 46.75 131.422 45.3984 131.078 43.4766L129.789 36.1641C129.398 34.1328 128.758 32.7109 127.867 31.8984C126.992 31.0859 125.461 30.6797 123.273 30.6797H122.617V42.9141C122.617 43.8359 122.656 44.5391 122.734 45.0234C122.812 45.5078 122.992 45.9062 123.273 46.2188C123.57 46.5312 123.93 46.7422 124.352 46.8516C124.773 46.9453 125.398 47.0078 126.227 47.0391V48C124.586 47.9062 122.055 47.8594 118.633 47.8594C115.508 47.8594 113.094 47.9062 111.391 48V47.0391C112.203 47.0078 112.82 46.9453 113.242 46.8516C113.664 46.7422 114.016 46.5312 114.297 46.2188C114.594 45.9062 114.781 45.5078 114.859 45.0234C114.938 44.5234 114.977 43.8203 114.977 42.9141V30.6797H114.32C113.18 30.6797 112.234 30.7812 111.484 30.9844C110.734 31.1875 110.117 31.5312 109.633 32.0156C109.148 32.4844 108.773 33.0391 108.508 33.6797C108.242 34.3203 108.016 35.1484 107.828 36.1641L106.539 43.4766C106.195 45.3984 105.492 46.75 104.43 47.5312C103.367 48.2969 101.906 48.6797 100.047 48.6797C98.6562 48.6797 97.4609 48.4531 96.4609 48C95.4609 47.5625 94.5312 46.8594 93.6719 45.8906ZM144.695 48V46.9922C145.836 46.9922 146.633 46.75 147.086 46.2656C147.539 45.7656 147.766 44.8594 147.766 43.5469V27.6797C147.766 26.3516 147.539 25.4453 147.086 24.9609C146.633 24.4609 145.836 24.2109 144.695 24.2109V23.2031C148.352 23.3438 150.461 23.4141 151.023 23.4141C151.664 23.4141 153.742 23.3438 157.258 23.2031V24.2109C156.289 24.2109 155.617 24.4609 155.242 24.9609C154.867 25.4453 154.68 26.3516 154.68 27.6797V42.6328L163.844 27.1406C163.797 26.0312 163.578 25.2656 163.188 24.8438C162.797 24.4219 162.148 24.2109 161.242 24.2109V23.2031C164.617 23.3438 166.602 23.4141 167.195 23.4141C167.758 23.4141 169.969 23.3438 173.828 23.2031V24.2109C172.688 24.2109 171.891 24.4609 171.438 24.9609C170.984 25.4453 170.758 26.3516 170.758 27.6797V43.5469C170.758 44.8594 170.984 45.7656 171.438 46.2656C171.891 46.75 172.688 46.9922 173.828 46.9922V48C170.578 47.875 168.461 47.8125 167.477 47.8125C166.508 47.8125 164.43 47.875 161.242 48V46.9922C162.211 46.9922 162.883 46.75 163.258 46.2656C163.648 45.7656 163.844 44.8594 163.844 43.5469V28.9453L154.703 44.4609C154.781 45.4141 155.016 46.0781 155.406 46.4531C155.797 46.8125 156.414 46.9922 157.258 46.9922V48C154.258 47.875 152.273 47.8125 151.305 47.8125C150.273 47.8125 148.07 47.875 144.695 48ZM175.094 44.3203C175.094 43.1172 175.445 42.1719 176.148 41.4844C176.852 40.7812 177.766 40.4297 178.891 40.4297C179.969 40.4297 180.812 40.7578 181.422 41.4141C182.047 42.0547 182.359 42.875 182.359 43.875C182.359 45.625 181.344 46.9219 179.312 47.7656C179.422 47.8125 179.633 47.8359 179.945 47.8359C181.711 47.8359 183.188 46.3672 184.375 43.4297C185.625 40.2891 186.516 35.0391 187.047 27.6797C187.047 27.6172 187.047 27.5391 187.047 27.4453C187.062 27.3359 187.07 27.2578 187.07 27.2109C187.07 26.1016 186.758 25.3281 186.133 24.8906C185.523 24.4375 184.562 24.2109 183.25 24.2109V23.2031C184.328 23.2969 185.344 23.3438 186.297 23.3438C186.734 23.3438 187.406 23.3359 188.312 23.3203C189.234 23.3047 190.047 23.2969 190.75 23.2969C191.688 23.2969 192.781 23.3203 194.031 23.3672C195.297 23.3984 196.266 23.4141 196.938 23.4141C197.422 23.4141 199.383 23.3438 202.82 23.2031V24.2109C201.773 24.2109 201.047 24.4609 200.641 24.9609C200.234 25.4453 200.031 26.3516 200.031 27.6797V43.5469C200.031 44.8594 200.234 45.7656 200.641 46.2656C201.062 46.75 201.789 46.9922 202.82 46.9922V48C199.758 47.875 197.703 47.8125 196.656 47.8125C195.688 47.8125 193.359 47.875 189.672 48V46.9922C190.891 46.9922 191.773 46.7422 192.32 46.2422C192.867 45.7422 193.141 44.8438 193.141 43.5469V27.6797C193.141 26.3516 192.945 25.4453 192.555 24.9609C192.18 24.4609 191.508 24.2109 190.539 24.2109H190.117C189.289 24.2109 188.758 24.4297 188.523 24.8672C188.305 25.3047 188.133 26.2422 188.008 27.6797C187.773 30.3203 187.578 32.3438 187.422 33.75C187.266 35.1406 186.992 36.8047 186.602 38.7422C186.227 40.6797 185.773 42.3203 185.242 43.6641C183.883 47.0078 182.031 48.6797 179.688 48.6797C178.484 48.6797 177.414 48.3125 176.477 47.5781C175.555 46.8281 175.094 45.7422 175.094 44.3203ZM205.984 35.6016C205.984 33.2891 206.266 31.2812 206.828 29.5781C207.406 27.8594 208.227 26.4922 209.289 25.4766C210.352 24.4609 211.578 23.7109 212.969 23.2266C214.375 22.7422 215.961 22.5 217.727 22.5C219.508 22.5 221.094 22.7422 222.484 23.2266C223.891 23.7109 225.125 24.4609 226.188 25.4766C227.25 26.4922 228.062 27.8594 228.625 29.5781C229.203 31.2812 229.492 33.2891 229.492 35.6016C229.492 37.9297 229.203 39.9453 228.625 41.6484C228.062 43.3516 227.25 44.7109 226.188 45.7266C225.125 46.7422 223.891 47.4922 222.484 47.9766C221.094 48.4453 219.508 48.6797 217.727 48.6797C215.945 48.6797 214.359 48.4453 212.969 47.9766C211.578 47.4922 210.352 46.7422 209.289 45.7266C208.227 44.7109 207.406 43.3516 206.828 41.6484C206.266 39.9453 205.984 37.9297 205.984 35.6016ZM214.445 26.4609C213.633 28.4453 213.227 31.4922 213.227 35.6016C213.227 39.7109 213.633 42.7578 214.445 44.7422C215.258 46.7266 216.352 47.7188 217.727 47.7188C219.117 47.7188 220.219 46.7266 221.031 44.7422C221.844 42.7578 222.25 39.7109 222.25 35.6016C222.25 31.4922 221.844 28.4453 221.031 26.4609C220.219 24.4609 219.117 23.4609 217.727 23.4609C216.352 23.4609 215.258 24.4609 214.445 26.4609ZM232.492 48V46.9922C233.633 46.9922 234.43 46.75 234.883 46.2656C235.336 45.7656 235.562 44.8594 235.562 43.5469V27.6797C235.562 26.3516 235.336 25.4453 234.883 24.9609C234.43 24.4609 233.633 24.2109 232.492 24.2109V23.2031C236.148 23.3438 238.258 23.4141 238.82 23.4141C239.461 23.4141 241.539 23.3438 245.055 23.2031V24.2109C244.086 24.2109 243.414 24.4609 243.039 24.9609C242.664 25.4453 242.477 26.3516 242.477 27.6797V42.6328L251.641 27.1406C251.594 26.0312 251.375 25.2656 250.984 24.8438C250.594 24.4219 249.945 24.2109 249.039 24.2109V23.2031C252.414 23.3438 254.398 23.4141 254.992 23.4141C255.555 23.4141 257.766 23.3438 261.625 23.2031V24.2109C260.484 24.2109 259.688 24.4609 259.234 24.9609C258.781 25.4453 258.555 26.3516 258.555 27.6797V43.5469C258.555 44.8594 258.781 45.7656 259.234 46.2656C259.688 46.75 260.484 46.9922 261.625 46.9922V48C258.375 47.875 256.258 47.8125 255.273 47.8125C254.305 47.8125 252.227 47.875 249.039 48V46.9922C250.008 46.9922 250.68 46.75 251.055 46.2656C251.445 45.7656 251.641 44.8594 251.641 43.5469V28.9453L242.5 44.4609C242.578 45.4141 242.812 46.0781 243.203 46.4531C243.594 46.8125 244.211 46.9922 245.055 46.9922V48C242.055 47.875 240.07 47.8125 239.102 47.8125C238.07 47.8125 235.867 47.875 232.492 48ZM236.992 13.2891C236.992 12.2578 237.312 11.4141 237.953 10.7578C238.609 10.1016 239.461 9.77344 240.508 9.77344C241.523 9.77344 242.367 10.1016 243.039 10.7578C243.727 11.4141 244.07 12.2656 244.07 13.3125C244.07 14.1406 243.828 14.8516 243.344 15.4453C242.859 16.0234 242.219 16.4375 241.422 16.6875C242.844 17.4375 244.711 17.8125 247.023 17.8125C249.352 17.8125 251.211 17.4297 252.602 16.6641C251.805 16.4297 251.172 16.0234 250.703 15.4453C250.25 14.8516 250.023 14.1406 250.023 13.3125C250.023 12.2656 250.359 11.4141 251.031 10.7578C251.703 10.1016 252.555 9.77344 253.586 9.77344C254.617 9.77344 255.461 10.1016 256.117 10.7578C256.773 11.4141 257.102 12.2578 257.102 13.2891C257.102 14.0703 256.859 14.7891 256.375 15.4453C255.906 16.1016 255.289 16.6484 254.523 17.0859C252.617 18.2109 250.117 18.7734 247.023 18.7734C243.914 18.7734 241.406 18.2109 239.5 17.0859C238.75 16.6484 238.141 16.1016 237.672 15.4453C237.219 14.7891 236.992 14.0703 236.992 13.2891ZM275.148 48V46.9922C276.289 46.9922 277.086 46.75 277.539 46.2656C277.992 45.7656 278.219 44.8594 278.219 43.5469V27.6797C278.219 26.3516 277.992 25.4453 277.539 24.9609C277.086 24.4609 276.289 24.2109 275.148 24.2109V23.2031C278.945 23.3438 281.156 23.4141 281.781 23.4141C282.406 23.4141 284.477 23.3438 287.992 23.2031V24.2109C286.93 24.2109 286.188 24.4609 285.766 24.9609C285.344 25.4453 285.133 26.3516 285.133 27.6797V34.8281C286.195 34.7656 287.07 34.6094 287.758 34.3594C288.461 34.1094 289.039 33.7188 289.492 33.1875C289.945 32.6562 290.297 32.0938 290.547 31.5C290.797 30.8906 291.07 30.0547 291.367 28.9922C291.555 28.3359 291.703 27.8203 291.812 27.4453C291.922 27.0547 292.078 26.6016 292.281 26.0859C292.484 25.5547 292.672 25.1406 292.844 24.8438C293.031 24.5469 293.266 24.2266 293.547 23.8828C293.844 23.5391 294.156 23.2812 294.484 23.1094C294.828 22.9375 295.227 22.7969 295.68 22.6875C296.148 22.5625 296.664 22.5 297.227 22.5C298.742 22.5 299.875 22.8516 300.625 23.5547C301.375 24.2578 301.75 25.1797 301.75 26.3203C301.75 27.4453 301.414 28.3359 300.742 28.9922C300.086 29.6484 299.227 29.9766 298.164 29.9766C297.133 29.9766 296.219 29.6719 295.422 29.0625C294.641 28.4531 294.25 27.5781 294.25 26.4375C294.25 25.2969 294.812 24.4219 295.938 23.8125C294.922 23.9375 294.195 24.3594 293.758 25.0781C293.336 25.7812 292.859 27.0781 292.328 28.9688C292.234 29.3281 292.156 29.6094 292.094 29.8125C291.672 31.1719 291.234 32.2188 290.781 32.9531C290.328 33.6875 289.648 34.2578 288.742 34.6641C289.336 34.6328 289.766 34.6172 290.031 34.6172C293.359 34.6172 295.727 35.5547 297.133 37.4297C297.523 37.9297 297.867 38.5391 298.164 39.2578C298.461 39.9766 298.773 40.8516 299.102 41.8828C299.445 42.8984 299.742 43.7188 299.992 44.3438C300.367 45.25 300.742 45.8984 301.117 46.2891C301.508 46.6641 302.078 46.8984 302.828 46.9922V48C301.531 48.2031 300.391 48.3047 299.406 48.3047C297.516 48.3047 296.039 47.9375 294.977 47.2031C293.914 46.4688 293.18 45.2656 292.773 43.5938L292.633 43.125C292.555 42.7969 292.5 42.5781 292.469 42.4688C292.438 42.3594 292.375 42.1328 292.281 41.7891C292.188 41.4453 292.102 41.1875 292.023 41.0156C291.961 40.8281 291.875 40.5781 291.766 40.2656C291.656 39.9375 291.547 39.6641 291.438 39.4453C291.344 39.2266 291.234 38.9844 291.109 38.7188C290.984 38.4531 290.852 38.2109 290.711 37.9922C290.57 37.7734 290.43 37.5703 290.289 37.3828C289.367 36.2266 287.898 35.6484 285.883 35.6484C285.805 35.6484 285.68 35.6562 285.508 35.6719C285.352 35.6719 285.227 35.6719 285.133 35.6719V43.5469C285.133 44.8594 285.344 45.7656 285.766 46.2656C286.188 46.75 286.93 46.9922 287.992 46.9922V48C284.742 47.875 282.594 47.8125 281.547 47.8125C280.531 47.8125 278.398 47.875 275.148 48ZM304.797 35.6016C304.797 33.2891 305.078 31.2812 305.641 29.5781C306.219 27.8594 307.039 26.4922 308.102 25.4766C309.164 24.4609 310.391 23.7109 311.781 23.2266C313.188 22.7422 314.773 22.5 316.539 22.5C318.32 22.5 319.906 22.7422 321.297 23.2266C322.703 23.7109 323.938 24.4609 325 25.4766C326.062 26.4922 326.875 27.8594 327.438 29.5781C328.016 31.2812 328.305 33.2891 328.305 35.6016C328.305 37.9297 328.016 39.9453 327.438 41.6484C326.875 43.3516 326.062 44.7109 325 45.7266C323.938 46.7422 322.703 47.4922 321.297 47.9766C319.906 48.4453 318.32 48.6797 316.539 48.6797C314.758 48.6797 313.172 48.4453 311.781 47.9766C310.391 47.4922 309.164 46.7422 308.102 45.7266C307.039 44.7109 306.219 43.3516 305.641 41.6484C305.078 39.9453 304.797 37.9297 304.797 35.6016ZM313.258 26.4609C312.445 28.4453 312.039 31.4922 312.039 35.6016C312.039 39.7109 312.445 42.7578 313.258 44.7422C314.07 46.7266 315.164 47.7188 316.539 47.7188C317.93 47.7188 319.031 46.7266 319.844 44.7422C320.656 42.7578 321.062 39.7109 321.062 35.6016C321.062 31.4922 320.656 28.4453 319.844 26.4609C319.031 24.4609 317.93 23.4609 316.539 23.4609C315.164 23.4609 314.07 24.4609 313.258 26.4609ZM331.188 48V47.0391C332.5 46.9766 333.375 46.4609 333.812 45.4922C334.266 44.5078 334.492 42.9766 334.492 40.8984V28.2422C334.492 27.0391 334.406 26.1719 334.234 25.6406C334.062 25.0938 333.758 24.7188 333.32 24.5156C332.898 24.2969 332.188 24.1641 331.188 24.1172V23.1562C332.281 23.2656 333.578 23.3203 335.078 23.3203C337.219 23.3203 339.359 23.2656 341.5 23.1562L348.039 39.5391L354.672 23.3203C355.453 23.3516 356.75 23.3672 358.562 23.3672C359.531 23.3672 361.492 23.3125 364.445 23.2031V24.1875C363.289 24.2188 362.516 24.4766 362.125 24.9609C361.75 25.4297 361.562 26.4141 361.562 27.9141V43.2891C361.562 44.7734 361.75 45.7578 362.125 46.2422C362.516 46.7266 363.289 46.9844 364.445 47.0156V48C362.398 47.8906 360.344 47.8359 358.281 47.8359C355.906 47.8359 353.641 47.8906 351.484 48V47.0156C352.75 46.9844 353.594 46.7266 354.016 46.2422C354.453 45.7578 354.672 44.7734 354.672 43.2891V25.9453L345.508 48.2344H344.734L335.547 26.2266V41.1797C335.547 43.2109 335.852 44.6797 336.461 45.5859C337.07 46.4922 338.258 46.9766 340.023 47.0391V48C338.68 47.9062 337.031 47.8594 335.078 47.8594C333.422 47.8594 332.125 47.9062 331.188 48ZM366.977 48V46.9922C368.117 46.9922 368.914 46.75 369.367 46.2656C369.82 45.7656 370.047 44.8594 370.047 43.5469V27.6797C370.047 26.3516 369.82 25.4453 369.367 24.9609C368.914 24.4609 368.117 24.2109 366.977 24.2109V23.2031C370.633 23.3438 372.742 23.4141 373.305 23.4141C374.086 23.4141 375.305 23.3828 376.961 23.3203C378.633 23.2422 380.008 23.2031 381.086 23.2031C382.18 23.2031 383.5 23.2422 385.047 23.3203C386.594 23.3828 387.781 23.4141 388.609 23.4141C389.156 23.4141 391.367 23.3438 395.242 23.2031V24.2109C394.102 24.2109 393.305 24.4609 392.852 24.9609C392.398 25.4453 392.172 26.3516 392.172 27.6797V43.5469C392.172 44.8594 392.398 45.7656 392.852 46.2656C393.305 46.75 394.102 46.9922 395.242 46.9922V48C391.992 47.875 389.875 47.8125 388.891 47.8125C387.922 47.8125 385.844 47.875 382.656 48V46.9922C383.625 46.9922 384.297 46.75 384.672 46.2656C385.062 45.7656 385.258 44.8594 385.258 43.5469V27.6797C385.258 26.3516 385.062 25.4453 384.672 24.9609C384.297 24.4609 383.625 24.2109 382.656 24.2109H379.539C378.57 24.2109 377.898 24.4609 377.523 24.9609C377.148 25.4453 376.961 26.3516 376.961 27.6797V43.5469C376.961 44.8594 377.148 45.7656 377.523 46.2656C377.898 46.75 378.57 46.9922 379.539 46.9922V48C376.539 47.875 374.555 47.8125 373.586 47.8125C372.555 47.8125 370.352 47.875 366.977 48ZM396.531 44.3203C396.531 43.1172 396.883 42.1719 397.586 41.4844C398.289 40.7812 399.203 40.4297 400.328 40.4297C401.406 40.4297 402.25 40.7578 402.859 41.4141C403.484 42.0547 403.797 42.875 403.797 43.875C403.797 45.625 402.781 46.9219 400.75 47.7656C400.859 47.8125 401.07 47.8359 401.383 47.8359C403.148 47.8359 404.625 46.3672 405.812 43.4297C407.062 40.2891 407.953 35.0391 408.484 27.6797C408.484 27.6172 408.484 27.5391 408.484 27.4453C408.5 27.3359 408.508 27.2578 408.508 27.2109C408.508 26.1016 408.195 25.3281 407.57 24.8906C406.961 24.4375 406 24.2109 404.688 24.2109V23.2031C405.766 23.2969 406.781 23.3438 407.734 23.3438C408.172 23.3438 408.844 23.3359 409.75 23.3203C410.672 23.3047 411.484 23.2969 412.188 23.2969C413.125 23.2969 414.219 23.3203 415.469 23.3672C416.734 23.3984 417.703 23.4141 418.375 23.4141C418.859 23.4141 420.82 23.3438 424.258 23.2031V24.2109C423.211 24.2109 422.484 24.4609 422.078 24.9609C421.672 25.4453 421.469 26.3516 421.469 27.6797V43.5469C421.469 44.8594 421.672 45.7656 422.078 46.2656C422.5 46.75 423.227 46.9922 424.258 46.9922V48C421.195 47.875 419.141 47.8125 418.094 47.8125C417.125 47.8125 414.797 47.875 411.109 48V46.9922C412.328 46.9922 413.211 46.7422 413.758 46.2422C414.305 45.7422 414.578 44.8438 414.578 43.5469V27.6797C414.578 26.3516 414.383 25.4453 413.992 24.9609C413.617 24.4609 412.945 24.2109 411.977 24.2109H411.555C410.727 24.2109 410.195 24.4297 409.961 24.8672C409.742 25.3047 409.57 26.2422 409.445 27.6797C409.211 30.3203 409.016 32.3438 408.859 33.75C408.703 35.1406 408.43 36.8047 408.039 38.7422C407.664 40.6797 407.211 42.3203 406.68 43.6641C405.32 47.0078 403.469 48.6797 401.125 48.6797C399.922 48.6797 398.852 48.3125 397.914 47.5781C396.992 46.8281 396.531 45.7422 396.531 44.3203ZM427.398 35.8359C427.398 31.5234 428.469 28.2266 430.609 25.9453C432.766 23.6484 435.609 22.5 439.141 22.5C445.156 22.5 448.164 26.0547 448.164 33.1641H434.734C434.672 33.7891 434.641 34.5469 434.641 35.4375C434.641 37.0469 434.82 38.4688 435.18 39.7031C435.539 40.9219 436.023 41.8906 436.633 42.6094C437.242 43.3125 437.906 43.8438 438.625 44.2031C439.344 44.5469 440.102 44.7188 440.898 44.7188C443.539 44.7188 445.641 43.4375 447.203 40.875L448.07 41.2031C447.773 42.1562 447.352 43.0625 446.805 43.9219C446.273 44.7656 445.617 45.5547 444.836 46.2891C444.07 47.0234 443.133 47.6016 442.023 48.0234C440.93 48.4609 439.742 48.6797 438.461 48.6797C435.086 48.6797 432.398 47.6016 430.398 45.4453C428.398 43.2734 427.398 40.0703 427.398 35.8359ZM434.594 32.25H442.117C442.164 29.75 441.906 27.6719 441.344 26.0156C440.797 24.3594 439.969 23.5312 438.859 23.5312C437.719 23.5312 436.766 24.2422 436 25.6641C435.25 27.0859 434.781 29.2812 434.594 32.25ZM451.023 48V46.9922C452.164 46.9922 452.961 46.75 453.414 46.2656C453.867 45.7656 454.094 44.8594 454.094 43.5469V27.6797C454.094 26.3516 453.867 25.4453 453.414 24.9609C452.961 24.4609 452.164 24.2109 451.023 24.2109V23.2031C454.82 23.3438 457.031 23.4141 457.656 23.4141C458.281 23.4141 460.352 23.3438 463.867 23.2031V24.2109C462.805 24.2109 462.062 24.4609 461.641 24.9609C461.219 25.4453 461.008 26.3516 461.008 27.6797V34.8281C462.07 34.7656 462.945 34.6094 463.633 34.3594C464.336 34.1094 464.914 33.7188 465.367 33.1875C465.82 32.6562 466.172 32.0938 466.422 31.5C466.672 30.8906 466.945 30.0547 467.242 28.9922C467.43 28.3359 467.578 27.8203 467.688 27.4453C467.797 27.0547 467.953 26.6016 468.156 26.0859C468.359 25.5547 468.547 25.1406 468.719 24.8438C468.906 24.5469 469.141 24.2266 469.422 23.8828C469.719 23.5391 470.031 23.2812 470.359 23.1094C470.703 22.9375 471.102 22.7969 471.555 22.6875C472.023 22.5625 472.539 22.5 473.102 22.5C474.617 22.5 475.75 22.8516 476.5 23.5547C477.25 24.2578 477.625 25.1797 477.625 26.3203C477.625 27.4453 477.289 28.3359 476.617 28.9922C475.961 29.6484 475.102 29.9766 474.039 29.9766C473.008 29.9766 472.094 29.6719 471.297 29.0625C470.516 28.4531 470.125 27.5781 470.125 26.4375C470.125 25.2969 470.688 24.4219 471.812 23.8125C470.797 23.9375 470.07 24.3594 469.633 25.0781C469.211 25.7812 468.734 27.0781 468.203 28.9688C468.109 29.3281 468.031 29.6094 467.969 29.8125C467.547 31.1719 467.109 32.2188 466.656 32.9531C466.203 33.6875 465.523 34.2578 464.617 34.6641C465.211 34.6328 465.641 34.6172 465.906 34.6172C469.234 34.6172 471.602 35.5547 473.008 37.4297C473.398 37.9297 473.742 38.5391 474.039 39.2578C474.336 39.9766 474.648 40.8516 474.977 41.8828C475.32 42.8984 475.617 43.7188 475.867 44.3438C476.242 45.25 476.617 45.8984 476.992 46.2891C477.383 46.6641 477.953 46.8984 478.703 46.9922V48C477.406 48.2031 476.266 48.3047 475.281 48.3047C473.391 48.3047 471.914 47.9375 470.852 47.2031C469.789 46.4688 469.055 45.2656 468.648 43.5938L468.508 43.125C468.43 42.7969 468.375 42.5781 468.344 42.4688C468.312 42.3594 468.25 42.1328 468.156 41.7891C468.062 41.4453 467.977 41.1875 467.898 41.0156C467.836 40.8281 467.75 40.5781 467.641 40.2656C467.531 39.9375 467.422 39.6641 467.312 39.4453C467.219 39.2266 467.109 38.9844 466.984 38.7188C466.859 38.4531 466.727 38.2109 466.586 37.9922C466.445 37.7734 466.305 37.5703 466.164 37.3828C465.242 36.2266 463.773 35.6484 461.758 35.6484C461.68 35.6484 461.555 35.6562 461.383 35.6719C461.227 35.6719 461.102 35.6719 461.008 35.6719V43.5469C461.008 44.8594 461.219 45.7656 461.641 46.2656C462.062 46.75 462.805 46.9922 463.867 46.9922V48C460.617 47.875 458.469 47.8125 457.422 47.8125C456.406 47.8125 454.273 47.875 451.023 48ZM480.625 35.7188C480.625 31.5156 481.719 28.2656 483.906 25.9688C486.109 23.6562 488.969 22.5 492.484 22.5C494.938 22.5 496.945 22.9922 498.508 23.9766C499.336 24.4766 499.984 25.1172 500.453 25.8984C500.922 26.6641 501.156 27.5156 501.156 28.4531C501.156 29.5938 500.797 30.5234 500.078 31.2422C499.375 31.9609 498.469 32.3203 497.359 32.3203C496.219 32.3203 495.312 32 494.641 31.3594C493.984 30.7031 493.656 29.8359 493.656 28.7578C493.656 27.7891 493.953 26.9531 494.547 26.25C495.156 25.5469 495.914 25.0703 496.82 24.8203C496.57 24.4922 496.18 24.2188 495.648 24C495.133 23.7812 494.562 23.6719 493.938 23.6719C492.641 23.6719 491.531 24.1719 490.609 25.1719C489.688 26.1719 489 27.5156 488.547 29.2031C488.094 30.8906 487.867 32.8359 487.867 35.0391C487.867 36.8203 488.047 38.3672 488.406 39.6797C488.766 40.9766 489.25 41.9844 489.859 42.7031C490.484 43.4062 491.156 43.9219 491.875 44.25C492.594 44.5625 493.375 44.7188 494.219 44.7188C496.828 44.7188 498.922 43.4141 500.5 40.8047L501.344 41.1094C501.047 42.0625 500.641 42.9688 500.125 43.8281C499.625 44.6719 498.992 45.4688 498.227 46.2188C497.477 46.9688 496.547 47.5625 495.438 48C494.328 48.4531 493.117 48.6797 491.805 48.6797C490.211 48.6797 488.742 48.4219 487.398 47.9062C486.07 47.3906 484.891 46.6172 483.859 45.5859C482.844 44.5547 482.047 43.2031 481.469 41.5312C480.906 39.8438 480.625 37.9062 480.625 35.7188ZM27.3203 109V107.992C28.4609 107.992 29.2578 107.75 29.7109 107.266C30.1641 106.766 30.3906 105.859 30.3906 104.547V88.6797C30.3906 87.3516 30.1641 86.4453 29.7109 85.9609C29.2578 85.4609 28.4609 85.2109 27.3203 85.2109V84.2031C30.9766 84.3438 33.0703 84.4141 33.6016 84.4141C34.6328 84.4141 36.0156 84.3828 37.75 84.3203C39.4844 84.2422 40.6406 84.2031 41.2188 84.2031C47.6875 84.2031 50.9219 86.0938 50.9219 89.875C50.9219 91.4688 50.1953 92.8359 48.7422 93.9766C47.3047 95.1016 45.1953 95.8125 42.4141 96.1094C45.8672 96.2188 48.3359 96.7891 49.8203 97.8203C51.3203 98.8516 52.0703 100.367 52.0703 102.367C52.0703 106.789 48.6875 109 41.9219 109C41.3281 109 40.1094 108.969 38.2656 108.906C36.4375 108.844 34.9844 108.812 33.9062 108.812C32.8906 108.812 30.6953 108.875 27.3203 109ZM37.3047 104.547C37.3047 105.922 37.4844 106.844 37.8438 107.312C38.2188 107.766 38.9062 107.992 39.9062 107.992C43.2656 107.992 44.9453 106.133 44.9453 102.414C44.9453 100.445 44.4844 99.0312 43.5625 98.1719C42.6406 97.3125 41.2266 96.8828 39.3203 96.8828H37.3047V104.547ZM37.3047 95.9922H38.0547C40.3672 95.9453 41.9219 95.4922 42.7188 94.6328C43.5156 93.7734 43.9141 92.375 43.9141 90.4375C43.9141 89.6562 43.8594 88.9766 43.75 88.3984C43.6406 87.8203 43.4375 87.2812 43.1406 86.7812C42.8594 86.2656 42.4375 85.875 41.875 85.6094C41.3125 85.3438 40.6094 85.2109 39.7656 85.2109C38.8281 85.2109 38.1797 85.4531 37.8203 85.9375C37.4766 86.4062 37.3047 87.3203 37.3047 88.6797V95.9922ZM66.0391 109V107.992C67.1797 107.992 67.9766 107.75 68.4297 107.266C68.8828 106.766 69.1094 105.859 69.1094 104.547V88.6797C69.1094 87.3516 68.8828 86.4453 68.4297 85.9609C67.9766 85.4609 67.1797 85.2109 66.0391 85.2109V84.2031C69.6953 84.3438 71.8047 84.4141 72.3672 84.4141C73.0078 84.4141 75.0859 84.3438 78.6016 84.2031V85.2109C77.6328 85.2109 76.9609 85.4609 76.5859 85.9609C76.2109 86.4453 76.0234 87.3516 76.0234 88.6797V103.633L85.1875 88.1406C85.1406 87.0312 84.9219 86.2656 84.5312 85.8438C84.1406 85.4219 83.4922 85.2109 82.5859 85.2109V84.2031C85.9609 84.3438 87.9453 84.4141 88.5391 84.4141C89.1016 84.4141 91.3125 84.3438 95.1719 84.2031V85.2109C94.0312 85.2109 93.2344 85.4609 92.7812 85.9609C92.3281 86.4453 92.1016 87.3516 92.1016 88.6797V104.547C92.1016 105.859 92.3281 106.766 92.7812 107.266C93.2344 107.75 94.0312 107.992 95.1719 107.992V109C91.9219 108.875 89.8047 108.812 88.8203 108.812C87.8516 108.812 85.7734 108.875 82.5859 109V107.992C83.5547 107.992 84.2266 107.75 84.6016 107.266C84.9922 106.766 85.1875 105.859 85.1875 104.547V89.9453L76.0469 105.461C76.125 106.414 76.3594 107.078 76.75 107.453C77.1406 107.812 77.7578 107.992 78.6016 107.992V109C75.6016 108.875 73.6172 108.812 72.6484 108.812C71.6172 108.812 69.4141 108.875 66.0391 109ZM98.0781 96.7188C98.0781 92.5156 99.1719 89.2656 101.359 86.9688C103.562 84.6562 106.422 83.5 109.938 83.5C112.391 83.5 114.398 83.9922 115.961 84.9766C116.789 85.4766 117.438 86.1172 117.906 86.8984C118.375 87.6641 118.609 88.5156 118.609 89.4531C118.609 90.5938 118.25 91.5234 117.531 92.2422C116.828 92.9609 115.922 93.3203 114.812 93.3203C113.672 93.3203 112.766 93 112.094 92.3594C111.438 91.7031 111.109 90.8359 111.109 89.7578C111.109 88.7891 111.406 87.9531 112 87.25C112.609 86.5469 113.367 86.0703 114.273 85.8203C114.023 85.4922 113.633 85.2188 113.102 85C112.586 84.7812 112.016 84.6719 111.391 84.6719C110.094 84.6719 108.984 85.1719 108.062 86.1719C107.141 87.1719 106.453 88.5156 106 90.2031C105.547 91.8906 105.32 93.8359 105.32 96.0391C105.32 97.8203 105.5 99.3672 105.859 100.68C106.219 101.977 106.703 102.984 107.312 103.703C107.938 104.406 108.609 104.922 109.328 105.25C110.047 105.562 110.828 105.719 111.672 105.719C114.281 105.719 116.375 104.414 117.953 101.805L118.797 102.109C118.5 103.062 118.094 103.969 117.578 104.828C117.078 105.672 116.445 106.469 115.68 107.219C114.93 107.969 114 108.562 112.891 109C111.781 109.453 110.57 109.68 109.258 109.68C107.664 109.68 106.195 109.422 104.852 108.906C103.523 108.391 102.344 107.617 101.312 106.586C100.297 105.555 99.5 104.203 98.9219 102.531C98.3594 100.844 98.0781 98.9062 98.0781 96.7188ZM121.375 84.2266H126.484C126.984 84.2266 128.109 84.2578 129.859 84.3203C131.625 84.3672 133.031 84.3906 134.078 84.3906C135.125 84.3906 136.539 84.3594 138.32 84.2969C140.117 84.2344 141.266 84.2031 141.766 84.2031H146.852C146.633 86.7344 146.523 88.9766 146.523 90.9297C146.523 92.3203 146.57 93.4062 146.664 94.1875H145.562C144.531 88.2031 142.398 85.2109 139.164 85.2109H137.57V104.055C137.57 105.539 137.945 106.57 138.695 107.148C139.445 107.711 140.578 107.992 142.094 107.992V109C137.719 108.875 135.07 108.812 134.148 108.812C133.133 108.812 130.469 108.875 126.156 109V107.992C127.719 107.992 128.859 107.75 129.578 107.266C130.297 106.766 130.656 105.789 130.656 104.336V85.2109H128.898C127.43 85.2109 126.164 85.8984 125.102 87.2734C124.055 88.6328 123.25 90.9453 122.688 94.2109H121.562C121.672 93.4922 121.727 92.4062 121.727 90.9531C121.727 89.1875 121.609 86.9453 121.375 84.2266ZM149.922 96.6016C149.922 94.2891 150.203 92.2812 150.766 90.5781C151.344 88.8594 152.164 87.4922 153.227 86.4766C154.289 85.4609 155.516 84.7109 156.906 84.2266C158.312 83.7422 159.898 83.5 161.664 83.5C163.445 83.5 165.031 83.7422 166.422 84.2266C167.828 84.7109 169.062 85.4609 170.125 86.4766C171.188 87.4922 172 88.8594 172.562 90.5781C173.141 92.2812 173.43 94.2891 173.43 96.6016C173.43 98.9297 173.141 100.945 172.562 102.648C172 104.352 171.188 105.711 170.125 106.727C169.062 107.742 167.828 108.492 166.422 108.977C165.031 109.445 163.445 109.68 161.664 109.68C159.883 109.68 158.297 109.445 156.906 108.977C155.516 108.492 154.289 107.742 153.227 106.727C152.164 105.711 151.344 104.352 150.766 102.648C150.203 100.945 149.922 98.9297 149.922 96.6016ZM158.383 87.4609C157.57 89.4453 157.164 92.4922 157.164 96.6016C157.164 100.711 157.57 103.758 158.383 105.742C159.195 107.727 160.289 108.719 161.664 108.719C163.055 108.719 164.156 107.727 164.969 105.742C165.781 103.758 166.188 100.711 166.188 96.6016C166.188 92.4922 165.781 89.4453 164.969 87.4609C164.156 85.4609 163.055 84.4609 161.664 84.4609C160.289 84.4609 159.195 85.4609 158.383 87.4609ZM176.195 85.2109V84.2031C177.211 84.2969 178.203 84.3438 179.172 84.3438C182.016 84.3438 184.352 84.1172 186.18 83.6641V88.1641C186.836 86.6484 187.812 85.4922 189.109 84.6953C190.406 83.8984 191.914 83.5 193.633 83.5C196.18 83.5 198.242 84.5312 199.82 86.5938C201.414 88.6562 202.211 91.6172 202.211 95.4766C202.211 100.055 201.219 103.57 199.234 106.023C197.25 108.461 194.539 109.68 191.102 109.68C189.039 109.68 187.398 109.164 186.18 108.133V112.938C186.18 114.344 186.531 115.32 187.234 115.867C187.953 116.414 189.039 116.688 190.492 116.688V117.695C185.648 117.555 182.961 117.484 182.43 117.484C181.992 117.484 179.977 117.555 176.383 117.695V116.688C177.461 116.688 178.211 116.453 178.633 115.984C179.055 115.516 179.266 114.656 179.266 113.406V89.4297C179.266 87.9453 179.031 86.875 178.562 86.2188C178.109 85.5469 177.32 85.2109 176.195 85.2109ZM186.18 107.078C186.914 107.938 187.93 108.367 189.227 108.367C191.273 108.367 192.742 107.352 193.633 105.32C194.523 103.273 194.969 100.305 194.969 96.4141C194.969 93.7734 194.789 91.6328 194.43 89.9922C194.086 88.3516 193.617 87.2031 193.023 86.5469C192.43 85.8906 191.695 85.5625 190.82 85.5625C189.727 85.5625 188.75 85.9375 187.891 86.6875C187.031 87.4375 186.461 88.4766 186.18 89.8047V107.078ZM205.211 109V107.992C206.352 107.992 207.148 107.75 207.602 107.266C208.055 106.766 208.281 105.859 208.281 104.547V88.6797C208.281 87.3516 208.055 86.4453 207.602 85.9609C207.148 85.4609 206.352 85.2109 205.211 85.2109V84.2031C208.867 84.3438 210.977 84.4141 211.539 84.4141C212.18 84.4141 214.258 84.3438 217.773 84.2031V85.2109C216.805 85.2109 216.133 85.4609 215.758 85.9609C215.383 86.4453 215.195 87.3516 215.195 88.6797V103.633L224.359 88.1406C224.312 87.0312 224.094 86.2656 223.703 85.8438C223.312 85.4219 222.664 85.2109 221.758 85.2109V84.2031C225.133 84.3438 227.117 84.4141 227.711 84.4141C228.273 84.4141 230.484 84.3438 234.344 84.2031V85.2109C233.203 85.2109 232.406 85.4609 231.953 85.9609C231.5 86.4453 231.273 87.3516 231.273 88.6797V104.547C231.273 105.859 231.5 106.766 231.953 107.266C232.406 107.75 233.203 107.992 234.344 107.992V109C231.094 108.875 228.977 108.812 227.992 108.812C227.023 108.812 224.945 108.875 221.758 109V107.992C222.727 107.992 223.398 107.75 223.773 107.266C224.164 106.766 224.359 105.859 224.359 104.547V89.9453L215.219 105.461C215.297 106.414 215.531 107.078 215.922 107.453C216.312 107.812 216.93 107.992 217.773 107.992V109C214.773 108.875 212.789 108.812 211.82 108.812C210.789 108.812 208.586 108.875 205.211 109ZM235.914 85.2109V84.2031C239.57 84.3438 241.695 84.4141 242.289 84.4141C242.914 84.4141 244.984 84.3438 248.5 84.2031V85.2109C247.531 85.2109 246.852 85.4609 246.461 85.9609C246.086 86.4453 245.898 87.3516 245.898 88.6797V93.1094C245.898 93.8906 245.914 94.5156 245.945 94.9844C245.977 95.4375 246.055 95.9062 246.18 96.3906C246.32 96.8594 246.516 97.2188 246.766 97.4688C247.016 97.7031 247.359 97.8984 247.797 98.0547C248.234 98.1953 248.781 98.2656 249.438 98.2656C250.906 98.2656 252.102 97.9766 253.023 97.3984V88.6797C253.023 87.3516 252.828 86.4453 252.438 85.9609C252.062 85.4609 251.391 85.2109 250.422 85.2109V84.2031C253.797 84.3438 255.797 84.4141 256.422 84.4141C256.938 84.4141 259.133 84.3438 263.008 84.2031V85.2109C261.867 85.2109 261.07 85.4609 260.617 85.9609C260.164 86.4453 259.938 87.3516 259.938 88.6797V104.547C259.938 105.859 260.164 106.766 260.617 107.266C261.07 107.75 261.867 107.992 263.008 107.992V109C259.758 108.875 257.57 108.812 256.445 108.812C255.586 108.812 252.938 108.875 248.5 109V107.992C250.016 107.992 251.148 107.711 251.898 107.148C252.648 106.57 253.023 105.539 253.023 104.055V98.3828C252.242 98.7891 251.18 99.1406 249.836 99.4375C248.508 99.7344 247.164 99.8828 245.805 99.8828C243.352 99.8828 241.57 99.3281 240.461 98.2188C239.883 97.6562 239.492 96.9453 239.289 96.0859C239.102 95.2266 239.008 94.0859 239.008 92.6641V88.6797C239.008 87.3516 238.773 86.4453 238.305 85.9609C237.852 85.4609 237.055 85.2109 235.914 85.2109ZM265.961 96.8359C265.961 92.5234 267.031 89.2266 269.172 86.9453C271.328 84.6484 274.172 83.5 277.703 83.5C283.719 83.5 286.727 87.0547 286.727 94.1641H273.297C273.234 94.7891 273.203 95.5469 273.203 96.4375C273.203 98.0469 273.383 99.4688 273.742 100.703C274.102 101.922 274.586 102.891 275.195 103.609C275.805 104.312 276.469 104.844 277.188 105.203C277.906 105.547 278.664 105.719 279.461 105.719C282.102 105.719 284.203 104.438 285.766 101.875L286.633 102.203C286.336 103.156 285.914 104.062 285.367 104.922C284.836 105.766 284.18 106.555 283.398 107.289C282.633 108.023 281.695 108.602 280.586 109.023C279.492 109.461 278.305 109.68 277.023 109.68C273.648 109.68 270.961 108.602 268.961 106.445C266.961 104.273 265.961 101.07 265.961 96.8359ZM273.156 93.25H280.68C280.727 90.75 280.469 88.6719 279.906 87.0156C279.359 85.3594 278.531 84.5312 277.422 84.5312C276.281 84.5312 275.328 85.2422 274.562 86.6641C273.812 88.0859 273.344 90.2812 273.156 93.25ZM290.172 96.7188C290.172 92.5156 291.266 89.2656 293.453 86.9688C295.656 84.6562 298.516 83.5 302.031 83.5C304.484 83.5 306.492 83.9922 308.055 84.9766C308.883 85.4766 309.531 86.1172 310 86.8984C310.469 87.6641 310.703 88.5156 310.703 89.4531C310.703 90.5938 310.344 91.5234 309.625 92.2422C308.922 92.9609 308.016 93.3203 306.906 93.3203C305.766 93.3203 304.859 93 304.188 92.3594C303.531 91.7031 303.203 90.8359 303.203 89.7578C303.203 88.7891 303.5 87.9531 304.094 87.25C304.703 86.5469 305.461 86.0703 306.367 85.8203C306.117 85.4922 305.727 85.2188 305.195 85C304.68 84.7812 304.109 84.6719 303.484 84.6719C302.188 84.6719 301.078 85.1719 300.156 86.1719C299.234 87.1719 298.547 88.5156 298.094 90.2031C297.641 91.8906 297.414 93.8359 297.414 96.0391C297.414 97.8203 297.594 99.3672 297.953 100.68C298.312 101.977 298.797 102.984 299.406 103.703C300.031 104.406 300.703 104.922 301.422 105.25C302.141 105.562 302.922 105.719 303.766 105.719C306.375 105.719 308.469 104.414 310.047 101.805L310.891 102.109C310.594 103.062 310.188 103.969 309.672 104.828C309.172 105.672 308.539 106.469 307.773 107.219C307.023 107.969 306.094 108.562 304.984 109C303.875 109.453 302.664 109.68 301.352 109.68C299.758 109.68 298.289 109.422 296.945 108.906C295.617 108.391 294.438 107.617 293.406 106.586C292.391 105.555 291.594 104.203 291.016 102.531C290.453 100.844 290.172 98.9062 290.172 96.7188ZM313.398 109V107.992C314.539 107.992 315.336 107.75 315.789 107.266C316.242 106.766 316.469 105.859 316.469 104.547V88.6797C316.469 87.3516 316.242 86.4453 315.789 85.9609C315.336 85.4609 314.539 85.2109 313.398 85.2109V84.2031C317.195 84.3438 319.406 84.4141 320.031 84.4141C320.656 84.4141 322.727 84.3438 326.242 84.2031V85.2109C325.18 85.2109 324.438 85.4609 324.016 85.9609C323.594 86.4453 323.383 87.3516 323.383 88.6797V95.8281C324.445 95.7656 325.32 95.6094 326.008 95.3594C326.711 95.1094 327.289 94.7188 327.742 94.1875C328.195 93.6562 328.547 93.0938 328.797 92.5C329.047 91.8906 329.32 91.0547 329.617 89.9922C329.805 89.3359 329.953 88.8203 330.062 88.4453C330.172 88.0547 330.328 87.6016 330.531 87.0859C330.734 86.5547 330.922 86.1406 331.094 85.8438C331.281 85.5469 331.516 85.2266 331.797 84.8828C332.094 84.5391 332.406 84.2812 332.734 84.1094C333.078 83.9375 333.477 83.7969 333.93 83.6875C334.398 83.5625 334.914 83.5 335.477 83.5C336.992 83.5 338.125 83.8516 338.875 84.5547C339.625 85.2578 340 86.1797 340 87.3203C340 88.4453 339.664 89.3359 338.992 89.9922C338.336 90.6484 337.477 90.9766 336.414 90.9766C335.383 90.9766 334.469 90.6719 333.672 90.0625C332.891 89.4531 332.5 88.5781 332.5 87.4375C332.5 86.2969 333.062 85.4219 334.188 84.8125C333.172 84.9375 332.445 85.3594 332.008 86.0781C331.586 86.7812 331.109 88.0781 330.578 89.9688C330.484 90.3281 330.406 90.6094 330.344 90.8125C329.922 92.1719 329.484 93.2188 329.031 93.9531C328.578 94.6875 327.898 95.2578 326.992 95.6641C327.586 95.6328 328.016 95.6172 328.281 95.6172C331.609 95.6172 333.977 96.5547 335.383 98.4297C335.773 98.9297 336.117 99.5391 336.414 100.258C336.711 100.977 337.023 101.852 337.352 102.883C337.695 103.898 337.992 104.719 338.242 105.344C338.617 106.25 338.992 106.898 339.367 107.289C339.758 107.664 340.328 107.898 341.078 107.992V109C339.781 109.203 338.641 109.305 337.656 109.305C335.766 109.305 334.289 108.938 333.227 108.203C332.164 107.469 331.43 106.266 331.023 104.594L330.883 104.125C330.805 103.797 330.75 103.578 330.719 103.469C330.688 103.359 330.625 103.133 330.531 102.789C330.438 102.445 330.352 102.188 330.273 102.016C330.211 101.828 330.125 101.578 330.016 101.266C329.906 100.938 329.797 100.664 329.688 100.445C329.594 100.227 329.484 99.9844 329.359 99.7188C329.234 99.4531 329.102 99.2109 328.961 98.9922C328.82 98.7734 328.68 98.5703 328.539 98.3828C327.617 97.2266 326.148 96.6484 324.133 96.6484C324.055 96.6484 323.93 96.6562 323.758 96.6719C323.602 96.6719 323.477 96.6719 323.383 96.6719V104.547C323.383 105.859 323.594 106.766 324.016 107.266C324.438 107.75 325.18 107.992 326.242 107.992V109C322.992 108.875 320.844 108.812 319.797 108.812C318.781 108.812 316.648 108.875 313.398 109ZM343.047 96.6016C343.047 94.2891 343.328 92.2812 343.891 90.5781C344.469 88.8594 345.289 87.4922 346.352 86.4766C347.414 85.4609 348.641 84.7109 350.031 84.2266C351.438 83.7422 353.023 83.5 354.789 83.5C356.57 83.5 358.156 83.7422 359.547 84.2266C360.953 84.7109 362.188 85.4609 363.25 86.4766C364.312 87.4922 365.125 88.8594 365.688 90.5781C366.266 92.2812 366.555 94.2891 366.555 96.6016C366.555 98.9297 366.266 100.945 365.688 102.648C365.125 104.352 364.312 105.711 363.25 106.727C362.188 107.742 360.953 108.492 359.547 108.977C358.156 109.445 356.57 109.68 354.789 109.68C353.008 109.68 351.422 109.445 350.031 108.977C348.641 108.492 347.414 107.742 346.352 106.727C345.289 105.711 344.469 104.352 343.891 102.648C343.328 100.945 343.047 98.9297 343.047 96.6016ZM351.508 87.4609C350.695 89.4453 350.289 92.4922 350.289 96.6016C350.289 100.711 350.695 103.758 351.508 105.742C352.32 107.727 353.414 108.719 354.789 108.719C356.18 108.719 357.281 107.727 358.094 105.742C358.906 103.758 359.312 100.711 359.312 96.6016C359.312 92.4922 358.906 89.4453 358.094 87.4609C357.281 85.4609 356.18 84.4609 354.789 84.4609C353.414 84.4609 352.32 85.4609 351.508 87.4609ZM369.438 109V108.039C370.75 107.977 371.625 107.461 372.062 106.492C372.516 105.508 372.742 103.977 372.742 101.898V89.2422C372.742 88.0391 372.656 87.1719 372.484 86.6406C372.312 86.0938 372.008 85.7188 371.57 85.5156C371.148 85.2969 370.438 85.1641 369.438 85.1172V84.1562C370.531 84.2656 371.828 84.3203 373.328 84.3203C375.469 84.3203 377.609 84.2656 379.75 84.1562L386.289 100.539L392.922 84.3203C393.703 84.3516 395 84.3672 396.812 84.3672C397.781 84.3672 399.742 84.3125 402.695 84.2031V85.1875C401.539 85.2188 400.766 85.4766 400.375 85.9609C400 86.4297 399.812 87.4141 399.812 88.9141V104.289C399.812 105.773 400 106.758 400.375 107.242C400.766 107.727 401.539 107.984 402.695 108.016V109C400.648 108.891 398.594 108.836 396.531 108.836C394.156 108.836 391.891 108.891 389.734 109V108.016C391 107.984 391.844 107.727 392.266 107.242C392.703 106.758 392.922 105.773 392.922 104.289V86.9453L383.758 109.234H382.984L373.797 87.2266V102.18C373.797 104.211 374.102 105.68 374.711 106.586C375.32 107.492 376.508 107.977 378.273 108.039V109C376.93 108.906 375.281 108.859 373.328 108.859C371.672 108.859 370.375 108.906 369.438 109ZM416.43 109V107.992C417.57 107.992 418.367 107.75 418.82 107.266C419.273 106.766 419.5 105.859 419.5 104.547V88.6797C419.5 87.3516 419.273 86.4453 418.82 85.9609C418.367 85.4609 417.57 85.2109 416.43 85.2109V84.2031C420.086 84.3438 422.195 84.4141 422.758 84.4141C423.398 84.4141 425.477 84.3438 428.992 84.2031V85.2109C428.023 85.2109 427.352 85.4609 426.977 85.9609C426.602 86.4453 426.414 87.3516 426.414 88.6797V104.547C426.414 105.859 426.602 106.766 426.977 107.266C427.352 107.75 428.023 107.992 428.992 107.992H432.109C433.078 107.992 433.75 107.75 434.125 107.266C434.516 106.766 434.711 105.859 434.711 104.547V88.6797C434.711 87.3516 434.516 86.4453 434.125 85.9609C433.75 85.4609 433.078 85.2109 432.109 85.2109V84.2031C435.484 84.3438 437.469 84.4141 438.062 84.4141C438.609 84.4141 440.82 84.3438 444.695 84.2031V85.2109C443.555 85.2109 442.758 85.4609 442.305 85.9609C441.852 86.4453 441.625 87.3516 441.625 88.6797V104.547C441.625 105.875 441.891 106.781 442.422 107.266C442.969 107.75 443.984 107.992 445.469 107.992C445.25 110.086 445.141 111.953 445.141 113.594C445.141 114.844 445.188 115.836 445.281 116.57H444.18C443.695 113.68 442.922 111.672 441.859 110.547C440.812 109.438 439.07 108.883 436.633 108.883C435.977 108.883 435.07 108.906 433.914 108.953C432.758 108.984 431.719 109 430.797 109C429.703 109 428.344 108.969 426.719 108.906C425.094 108.844 423.867 108.812 423.039 108.812C422.008 108.812 419.805 108.875 416.43 109ZM447.789 96.8359C447.789 92.5234 448.859 89.2266 451 86.9453C453.156 84.6484 456 83.5 459.531 83.5C465.547 83.5 468.555 87.0547 468.555 94.1641H455.125C455.062 94.7891 455.031 95.5469 455.031 96.4375C455.031 98.0469 455.211 99.4688 455.57 100.703C455.93 101.922 456.414 102.891 457.023 103.609C457.633 104.312 458.297 104.844 459.016 105.203C459.734 105.547 460.492 105.719 461.289 105.719C463.93 105.719 466.031 104.438 467.594 101.875L468.461 102.203C468.164 103.156 467.742 104.062 467.195 104.922C466.664 105.766 466.008 106.555 465.227 107.289C464.461 108.023 463.523 108.602 462.414 109.023C461.32 109.461 460.133 109.68 458.852 109.68C455.477 109.68 452.789 108.602 450.789 106.445C448.789 104.273 447.789 101.07 447.789 96.8359ZM454.984 93.25H462.508C462.555 90.75 462.297 88.6719 461.734 87.0156C461.188 85.3594 460.359 84.5312 459.25 84.5312C458.109 84.5312 457.156 85.2422 456.391 86.6641C455.641 88.0859 455.172 90.2812 454.984 93.25ZM471.414 109V107.992C472.555 107.992 473.352 107.75 473.805 107.266C474.258 106.766 474.484 105.859 474.484 104.547V88.6797C474.484 87.3516 474.258 86.4453 473.805 85.9609C473.352 85.4609 472.555 85.2109 471.414 85.2109V84.2031C475.07 84.3438 477.18 84.4141 477.742 84.4141C478.383 84.4141 480.461 84.3438 483.977 84.2031V85.2109C483.008 85.2109 482.336 85.4609 481.961 85.9609C481.586 86.4453 481.398 87.3516 481.398 88.6797V95.7344H489.695V88.6797C489.695 87.3516 489.5 86.4453 489.109 85.9609C488.734 85.4609 488.062 85.2109 487.094 85.2109V84.2031C490.469 84.3438 492.453 84.4141 493.047 84.4141C493.594 84.4141 495.805 84.3438 499.68 84.2031V85.2109C498.539 85.2109 497.742 85.4609 497.289 85.9609C496.836 86.4453 496.609 87.3516 496.609 88.6797V104.547C496.609 105.859 496.836 106.766 497.289 107.266C497.742 107.75 498.539 107.992 499.68 107.992V109C496.43 108.875 494.312 108.812 493.328 108.812C492.359 108.812 490.281 108.875 487.094 109V107.992C488.062 107.992 488.734 107.75 489.109 107.266C489.5 106.766 489.695 105.859 489.695 104.547V96.6953H481.398V104.547C481.398 105.859 481.586 106.766 481.961 107.266C482.336 107.75 483.008 107.992 483.977 107.992V109C480.977 108.875 478.992 108.812 478.023 108.812C476.992 108.812 474.789 108.875 471.414 109ZM502.094 84.2266H507.203C507.703 84.2266 508.828 84.2578 510.578 84.3203C512.344 84.3672 513.75 84.3906 514.797 84.3906C515.844 84.3906 517.258 84.3594 519.039 84.2969C520.836 84.2344 521.984 84.2031 522.484 84.2031H527.57C527.352 86.7344 527.242 88.9766 527.242 90.9297C527.242 92.3203 527.289 93.4062 527.383 94.1875H526.281C525.25 88.2031 523.117 85.2109 519.883 85.2109H518.289V104.055C518.289 105.539 518.664 106.57 519.414 107.148C520.164 107.711 521.297 107.992 522.812 107.992V109C518.438 108.875 515.789 108.812 514.867 108.812C513.852 108.812 511.188 108.875 506.875 109V107.992C508.438 107.992 509.578 107.75 510.297 107.266C511.016 106.766 511.375 105.789 511.375 104.336V85.2109H509.617C508.148 85.2109 506.883 85.8984 505.82 87.2734C504.773 88.6328 503.969 90.9453 503.406 94.2109H502.281C502.391 93.4922 502.445 92.4062 502.445 90.9531C502.445 89.1875 502.328 86.9453 502.094 84.2266ZM529.773 85.2109V84.2031C530.789 84.2969 531.781 84.3438 532.75 84.3438C535.594 84.3438 537.93 84.1172 539.758 83.6641V88.1641C540.414 86.6484 541.391 85.4922 542.688 84.6953C543.984 83.8984 545.492 83.5 547.211 83.5C549.758 83.5 551.82 84.5312 553.398 86.5938C554.992 88.6562 555.789 91.6172 555.789 95.4766C555.789 100.055 554.797 103.57 552.812 106.023C550.828 108.461 548.117 109.68 544.68 109.68C542.617 109.68 540.977 109.164 539.758 108.133V112.938C539.758 114.344 540.109 115.32 540.812 115.867C541.531 116.414 542.617 116.688 544.07 116.688V117.695C539.227 117.555 536.539 117.484 536.008 117.484C535.57 117.484 533.555 117.555 529.961 117.695V116.688C531.039 116.688 531.789 116.453 532.211 115.984C532.633 115.516 532.844 114.656 532.844 113.406V89.4297C532.844 87.9453 532.609 86.875 532.141 86.2188C531.688 85.5469 530.898 85.2109 529.773 85.2109ZM539.758 107.078C540.492 107.938 541.508 108.367 542.805 108.367C544.852 108.367 546.32 107.352 547.211 105.32C548.102 103.273 548.547 100.305 548.547 96.4141C548.547 93.7734 548.367 91.6328 548.008 89.9922C547.664 88.3516 547.195 87.2031 546.602 86.5469C546.008 85.8906 545.273 85.5625 544.398 85.5625C543.305 85.5625 542.328 85.9375 541.469 86.6875C540.609 87.4375 540.039 88.4766 539.758 89.8047V107.078ZM559.398 96.8359C559.398 92.5234 560.469 89.2266 562.609 86.9453C564.766 84.6484 567.609 83.5 571.141 83.5C577.156 83.5 580.164 87.0547 580.164 94.1641H566.734C566.672 94.7891 566.641 95.5469 566.641 96.4375C566.641 98.0469 566.82 99.4688 567.18 100.703C567.539 101.922 568.023 102.891 568.633 103.609C569.242 104.312 569.906 104.844 570.625 105.203C571.344 105.547 572.102 105.719 572.898 105.719C575.539 105.719 577.641 104.438 579.203 101.875L580.07 102.203C579.773 103.156 579.352 104.062 578.805 104.922C578.273 105.766 577.617 106.555 576.836 107.289C576.07 108.023 575.133 108.602 574.023 109.023C572.93 109.461 571.742 109.68 570.461 109.68C567.086 109.68 564.398 108.602 562.398 106.445C560.398 104.273 559.398 101.07 559.398 96.8359ZM566.594 93.25H574.117C574.164 90.75 573.906 88.6719 573.344 87.0156C572.797 85.3594 571.969 84.5312 570.859 84.5312C569.719 84.5312 568.766 85.2422 568 86.6641C567.25 88.0859 566.781 90.2812 566.594 93.25Z" fill="#D4C17F"/>
<g clip-path="url(#clip0)">
<path d="M303.969 209C297.481 209 292.203 214.278 292.203 220.766V237.234C292.203 243.722 297.481 249 303.969 249C310.457 249 315.735 243.722 315.735 237.234V220.766C315.735 214.278 310.457 209 303.969 209ZM313.335 237.234C313.335 242.398 309.133 246.6 303.969 246.6C298.805 246.6 294.603 242.398 294.603 237.234V220.766C294.603 215.602 298.805 211.4 303.969 211.4C309.133 211.4 313.335 215.602 313.335 220.766V237.234Z" fill="#D4C17F"/>
<path d="M303.969 216.957C303.306 216.957 302.769 217.494 302.769 218.157V223.68C302.769 224.343 303.306 224.88 303.969 224.88C304.632 224.88 305.169 224.343 305.169 223.68V218.157C305.169 217.494 304.632 216.957 303.969 216.957Z" fill="#D4C17F"/>
</g>
<path d="M47.9881 453.22V466H46.7461V460.024H39.1681V466H37.9081V453.22H39.1681V458.908H46.7461V453.22H47.9881ZM53.25 466.18C52.806 466.18 52.392 466.108 52.008 465.964C51.636 465.808 51.306 465.598 51.018 465.334C50.742 465.07 50.526 464.764 50.37 464.416C50.214 464.056 50.136 463.672 50.136 463.264C50.136 462.856 50.232 462.478 50.424 462.13C50.616 461.782 50.886 461.482 51.234 461.23C51.582 460.978 51.996 460.786 52.476 460.654C52.956 460.51 53.484 460.438 54.06 460.438C54.54 460.438 55.026 460.48 55.518 460.564C56.01 460.648 56.448 460.768 56.832 460.924V460.078C56.832 459.25 56.598 458.596 56.13 458.116C55.662 457.624 55.014 457.378 54.186 457.378C53.706 457.378 53.214 457.474 52.71 457.666C52.206 457.858 51.696 458.134 51.18 458.494L50.748 457.684C51.96 456.868 53.136 456.46 54.276 456.46C55.452 456.46 56.376 456.79 57.048 457.45C57.72 458.11 58.056 459.022 58.056 460.186V464.416C58.056 464.752 58.206 464.92 58.506 464.92V466C58.302 466.036 58.146 466.054 58.038 466.054C57.726 466.054 57.48 465.976 57.3 465.82C57.132 465.664 57.042 465.448 57.03 465.172L56.994 464.434C56.562 464.998 56.016 465.43 55.356 465.73C54.708 466.03 54.006 466.18 53.25 466.18ZM53.538 465.244C54.174 465.244 54.756 465.124 55.284 464.884C55.824 464.644 56.232 464.326 56.508 463.93C56.616 463.822 56.694 463.708 56.742 463.588C56.802 463.456 56.832 463.336 56.832 463.228V461.698C56.424 461.542 55.998 461.422 55.554 461.338C55.122 461.254 54.678 461.212 54.222 461.212C53.358 461.212 52.656 461.392 52.116 461.752C51.576 462.112 51.306 462.586 51.306 463.174C51.306 463.462 51.36 463.732 51.468 463.984C51.588 464.236 51.744 464.458 51.936 464.65C52.14 464.83 52.38 464.974 52.656 465.082C52.932 465.19 53.226 465.244 53.538 465.244ZM65.3082 454.39C64.2522 454.63 63.4122 455.11 62.7882 455.83C62.1762 456.538 61.7922 457.546 61.6362 458.854C62.0082 458.278 62.4702 457.834 63.0222 457.522C63.5742 457.21 64.2102 457.054 64.9302 457.054C65.5422 457.054 66.1002 457.168 66.6042 457.396C67.1082 457.624 67.5402 457.942 67.9002 458.35C68.2722 458.746 68.5542 459.226 68.7462 459.79C68.9502 460.354 69.0522 460.972 69.0522 461.644C69.0522 462.316 68.9502 462.934 68.7462 463.498C68.5422 464.05 68.2482 464.524 67.8642 464.92C67.4802 465.316 67.0122 465.628 66.4602 465.856C65.9202 466.072 65.3082 466.18 64.6242 466.18C63.2442 466.18 62.1942 465.694 61.4742 464.722C60.7542 463.75 60.3942 462.37 60.3942 460.582C60.3942 459.49 60.5022 458.53 60.7182 457.702C60.9462 456.874 61.2642 456.166 61.6722 455.578C62.0922 454.978 62.6022 454.498 63.2022 454.138C63.8022 453.766 64.4802 453.49 65.2362 453.31L68.0442 452.662L68.2782 453.688L65.3082 454.39ZM61.6542 461.59C61.6542 462.094 61.7262 462.568 61.8702 463.012C62.0142 463.444 62.2182 463.822 62.4822 464.146C62.7582 464.458 63.0822 464.704 63.4542 464.884C63.8382 465.064 64.2642 465.154 64.7322 465.154C65.2002 465.154 65.6202 465.07 65.9922 464.902C66.3762 464.722 66.7002 464.476 66.9642 464.164C67.2402 463.852 67.4502 463.486 67.5942 463.066C67.7382 462.634 67.8102 462.166 67.8102 461.662C67.8102 460.594 67.5282 459.748 66.9642 459.124C66.4002 458.5 65.6382 458.188 64.6782 458.188C64.2342 458.188 63.8262 458.266 63.4542 458.422C63.0822 458.578 62.7642 458.806 62.5002 459.106C62.2362 459.394 62.0262 459.748 61.8702 460.168C61.7262 460.588 61.6542 461.062 61.6542 461.59ZM70.9971 466V464.236H72.0591V466H70.9971ZM83.9812 466.18C83.1892 466.18 82.4872 465.982 81.8752 465.586C81.2752 465.178 80.7892 464.668 80.4172 464.056V469.834H79.1932V456.622H80.2912V458.44C80.6752 457.852 81.1732 457.378 81.7852 457.018C82.3972 456.646 83.0632 456.46 83.7832 456.46C84.4312 456.46 85.0252 456.598 85.5652 456.874C86.1052 457.138 86.5732 457.498 86.9692 457.954C87.3652 458.398 87.6712 458.914 87.8872 459.502C88.1152 460.09 88.2292 460.696 88.2292 461.32C88.2292 461.98 88.1272 462.604 87.9232 463.192C87.7192 463.78 87.4252 464.296 87.0412 464.74C86.6692 465.184 86.2192 465.538 85.6912 465.802C85.1752 466.054 84.6052 466.18 83.9812 466.18ZM83.6392 465.1C84.1432 465.1 84.5992 464.992 85.0072 464.776C85.4272 464.56 85.7812 464.278 86.0692 463.93C86.3692 463.57 86.5972 463.168 86.7532 462.724C86.9092 462.268 86.9872 461.8 86.9872 461.32C86.9872 460.816 86.8972 460.336 86.7172 459.88C86.5372 459.424 86.2912 459.022 85.9792 458.674C85.6672 458.326 85.2952 458.05 84.8632 457.846C84.4432 457.642 83.9872 457.54 83.4952 457.54C83.1832 457.54 82.8532 457.606 82.5052 457.738C82.1692 457.858 81.8512 458.026 81.5512 458.242C81.2632 458.446 81.0112 458.692 80.7952 458.98C80.5912 459.256 80.4652 459.55 80.4172 459.862V462.742C80.5612 463.078 80.7412 463.39 80.9572 463.678C81.1852 463.966 81.4372 464.218 81.7132 464.434C82.0012 464.638 82.3072 464.8 82.6312 464.92C82.9552 465.04 83.2912 465.1 83.6392 465.1ZM94.3697 466.18C93.6857 466.18 93.0557 466.054 92.4797 465.802C91.9157 465.538 91.4237 465.184 91.0037 464.74C90.5837 464.284 90.2537 463.762 90.0137 463.174C89.7857 462.586 89.6717 461.956 89.6717 461.284C89.6717 460.624 89.7857 460.006 90.0137 459.43C90.2537 458.842 90.5777 458.332 90.9857 457.9C91.4057 457.456 91.9037 457.108 92.4797 456.856C93.0557 456.592 93.6797 456.46 94.3517 456.46C95.0357 456.46 95.6597 456.592 96.2237 456.856C96.7997 457.108 97.2917 457.456 97.6997 457.9C98.1077 458.344 98.4257 458.854 98.6537 459.43C98.8817 460.006 98.9957 460.618 98.9957 461.266C98.9957 461.362 98.9957 461.458 98.9957 461.554C98.9957 461.65 98.9897 461.716 98.9777 461.752H90.9497C90.9857 462.256 91.0997 462.724 91.2917 463.156C91.4957 463.576 91.7537 463.942 92.0657 464.254C92.3777 464.566 92.7317 464.812 93.1277 464.992C93.5357 465.16 93.9677 465.244 94.4237 465.244C94.7237 465.244 95.0237 465.202 95.3237 465.118C95.6237 465.034 95.8997 464.92 96.1517 464.776C96.4037 464.632 96.6317 464.458 96.8357 464.254C97.0397 464.038 97.1957 463.804 97.3037 463.552L98.3657 463.84C98.2217 464.188 98.0177 464.506 97.7537 464.794C97.4897 465.07 97.1837 465.316 96.8357 465.532C96.4877 465.736 96.1037 465.892 95.6837 466C95.2637 466.12 94.8257 466.18 94.3697 466.18ZM97.8257 460.816C97.7897 460.312 97.6697 459.856 97.4657 459.448C97.2737 459.028 97.0217 458.668 96.7097 458.368C96.4097 458.068 96.0557 457.834 95.6477 457.666C95.2517 457.498 94.8257 457.414 94.3697 457.414C93.9137 457.414 93.4817 457.498 93.0737 457.666C92.6657 457.834 92.3057 458.068 91.9937 458.368C91.6937 458.668 91.4477 459.028 91.2557 459.448C91.0757 459.868 90.9677 460.324 90.9317 460.816H97.8257ZM106.446 456.622H107.814L104.268 461.158L108.12 466H106.752L103.44 461.716H102.108V466H100.902V456.622H102.108V460.762H103.332L106.446 456.622ZM110.827 464.272L116.425 456.622H117.415V466H116.209V458.494L110.719 466H109.621V456.622H110.827V464.272ZM129.472 464.848C128.632 464.8 127.87 464.638 127.186 464.362C126.514 464.086 125.938 463.714 125.458 463.246C124.99 462.778 124.624 462.22 124.36 461.572C124.108 460.924 123.982 460.192 123.982 459.376C123.982 458.572 124.108 457.846 124.36 457.198C124.612 456.538 124.972 455.968 125.44 455.488C125.92 455.008 126.496 454.63 127.168 454.354C127.852 454.066 128.62 453.892 129.472 453.832V452.104H130.732V453.832C131.56 453.892 132.304 454.066 132.964 454.354C133.636 454.63 134.2 455.008 134.656 455.488C135.124 455.968 135.478 456.538 135.718 457.198C135.97 457.846 136.096 458.572 136.096 459.376C136.096 460.192 135.97 460.924 135.718 461.572C135.466 462.22 135.106 462.778 134.638 463.246C134.182 463.714 133.624 464.086 132.964 464.362C132.304 464.638 131.56 464.8 130.732 464.848V466.666H129.472V464.848ZM130.732 463.696C132.016 463.588 133.018 463.162 133.738 462.418C134.47 461.662 134.836 460.63 134.836 459.322C134.836 458.014 134.476 456.994 133.756 456.262C133.048 455.518 132.04 455.098 130.732 455.002V463.696ZM129.472 455.002C128.128 455.098 127.09 455.518 126.358 456.262C125.626 456.994 125.26 458.014 125.26 459.322C125.26 460.642 125.632 461.68 126.376 462.436C127.12 463.18 128.152 463.6 129.472 463.696V455.002ZM142.075 466.18C141.391 466.18 140.767 466.054 140.203 465.802C139.639 465.538 139.147 465.184 138.727 464.74C138.319 464.296 138.001 463.78 137.773 463.192C137.545 462.604 137.431 461.986 137.431 461.338C137.431 460.678 137.545 460.054 137.773 459.466C138.013 458.878 138.337 458.362 138.745 457.918C139.165 457.474 139.657 457.12 140.221 456.856C140.785 456.592 141.403 456.46 142.075 456.46C142.747 456.46 143.365 456.592 143.929 456.856C144.505 457.12 144.997 457.474 145.405 457.918C145.825 458.362 146.149 458.878 146.377 459.466C146.617 460.054 146.737 460.678 146.737 461.338C146.737 461.986 146.623 462.604 146.395 463.192C146.167 463.78 145.843 464.296 145.423 464.74C145.015 465.184 144.523 465.538 143.947 465.802C143.383 466.054 142.759 466.18 142.075 466.18ZM138.673 461.356C138.673 461.884 138.763 462.376 138.943 462.832C139.123 463.276 139.363 463.672 139.663 464.02C139.975 464.356 140.335 464.62 140.743 464.812C141.163 465.004 141.607 465.1 142.075 465.1C142.543 465.1 142.981 465.004 143.389 464.812C143.809 464.608 144.175 464.338 144.487 464.002C144.799 463.654 145.045 463.252 145.225 462.796C145.405 462.34 145.495 461.848 145.495 461.32C145.495 460.804 145.405 460.318 145.225 459.862C145.045 459.394 144.799 458.992 144.487 458.656C144.175 458.308 143.809 458.038 143.389 457.846C142.981 457.642 142.543 457.54 142.075 457.54C141.607 457.54 141.169 457.642 140.761 457.846C140.353 458.038 139.993 458.308 139.681 458.656C139.369 459.004 139.123 459.412 138.943 459.88C138.763 460.336 138.673 460.828 138.673 461.356ZM150.009 460.672H155.265V456.622H156.471V466H155.265V461.698H150.009V466H148.803V456.622H150.009V460.672ZM162.701 466H161.513V457.684H158.219V456.622H165.995V457.684H162.701V466ZM169.898 466.18C169.454 466.18 169.04 466.108 168.656 465.964C168.284 465.808 167.954 465.598 167.666 465.334C167.39 465.07 167.174 464.764 167.018 464.416C166.862 464.056 166.784 463.672 166.784 463.264C166.784 462.856 166.88 462.478 167.072 462.13C167.264 461.782 167.534 461.482 167.882 461.23C168.23 460.978 168.644 460.786 169.124 460.654C169.604 460.51 170.132 460.438 170.708 460.438C171.188 460.438 171.674 460.48 172.166 460.564C172.658 460.648 173.096 460.768 173.48 460.924V460.078C173.48 459.25 173.246 458.596 172.778 458.116C172.31 457.624 171.662 457.378 170.834 457.378C170.354 457.378 169.862 457.474 169.358 457.666C168.854 457.858 168.344 458.134 167.828 458.494L167.396 457.684C168.608 456.868 169.784 456.46 170.924 456.46C172.1 456.46 173.024 456.79 173.696 457.45C174.368 458.11 174.704 459.022 174.704 460.186V464.416C174.704 464.752 174.854 464.92 175.154 464.92V466C174.95 466.036 174.794 466.054 174.686 466.054C174.374 466.054 174.128 465.976 173.948 465.82C173.78 465.664 173.69 465.448 173.678 465.172L173.642 464.434C173.21 464.998 172.664 465.43 172.004 465.73C171.356 466.03 170.654 466.18 169.898 466.18ZM170.186 465.244C170.822 465.244 171.404 465.124 171.932 464.884C172.472 464.644 172.88 464.326 173.156 463.93C173.264 463.822 173.342 463.708 173.39 463.588C173.45 463.456 173.48 463.336 173.48 463.228V461.698C173.072 461.542 172.646 461.422 172.202 461.338C171.77 461.254 171.326 461.212 170.87 461.212C170.006 461.212 169.304 461.392 168.764 461.752C168.224 462.112 167.954 462.586 167.954 463.174C167.954 463.462 168.008 463.732 168.116 463.984C168.236 464.236 168.392 464.458 168.584 464.65C168.788 464.83 169.028 464.974 169.304 465.082C169.58 465.19 169.874 465.244 170.186 465.244ZM178.591 460.672H183.847V456.622H185.053V466H183.847V461.698H178.591V466H177.385V456.622H178.591V460.672ZM193.335 456.622H194.703L191.157 461.158L195.009 466H193.641L190.329 461.716H188.997V466H187.791V456.622H188.997V460.762H190.221L193.335 456.622ZM197.716 464.272L203.314 456.622H204.304V466H203.098V458.494L197.608 466H196.51V456.622H197.716V464.272ZM217.584 464.884V466H211.482V464.884H214.038V457.18C213.942 457.324 213.774 457.48 213.534 457.648C213.306 457.816 213.048 457.972 212.76 458.116C212.484 458.26 212.196 458.38 211.896 458.476C211.596 458.572 211.332 458.62 211.104 458.62V457.432C211.38 457.432 211.68 457.354 212.004 457.198C212.34 457.042 212.652 456.862 212.94 456.658C213.24 456.454 213.492 456.262 213.696 456.082C213.9 455.902 214.014 455.782 214.038 455.722H215.298V464.884H217.584ZM228.002 460.726C228.002 461.518 227.888 462.25 227.66 462.922C227.432 463.582 227.114 464.158 226.706 464.65C226.31 465.13 225.836 465.508 225.284 465.784C224.732 466.048 224.132 466.18 223.484 466.18C222.836 466.18 222.236 466.048 221.684 465.784C221.132 465.508 220.652 465.13 220.244 464.65C219.848 464.158 219.536 463.582 219.308 462.922C219.08 462.25 218.966 461.518 218.966 460.726C218.966 459.934 219.08 459.208 219.308 458.548C219.536 457.876 219.848 457.3 220.244 456.82C220.652 456.328 221.132 455.944 221.684 455.668C222.236 455.392 222.836 455.254 223.484 455.254C224.132 455.254 224.732 455.392 225.284 455.668C225.836 455.944 226.31 456.328 226.706 456.82C227.114 457.3 227.432 457.876 227.66 458.548C227.888 459.208 228.002 459.934 228.002 460.726ZM226.76 460.726C226.76 460.078 226.676 459.49 226.508 458.962C226.352 458.434 226.13 457.984 225.842 457.612C225.554 457.228 225.206 456.934 224.798 456.73C224.402 456.514 223.964 456.406 223.484 456.406C222.992 456.406 222.542 456.514 222.134 456.73C221.738 456.934 221.396 457.228 221.108 457.612C220.82 457.984 220.592 458.434 220.424 458.962C220.268 459.49 220.19 460.078 220.19 460.726C220.19 461.374 220.268 461.962 220.424 462.49C220.592 463.018 220.82 463.474 221.108 463.858C221.396 464.23 221.738 464.518 222.134 464.722C222.542 464.926 222.992 465.028 223.484 465.028C223.964 465.028 224.402 464.926 224.798 464.722C225.206 464.518 225.554 464.23 225.842 463.858C226.13 463.474 226.352 463.018 226.508 462.49C226.676 461.962 226.76 461.374 226.76 460.726ZM230.167 461.662V460.528H235.423V461.662H230.167ZM243.512 464.884V466H237.41V464.884H239.966V457.18C239.87 457.324 239.702 457.48 239.462 457.648C239.234 457.816 238.976 457.972 238.688 458.116C238.412 458.26 238.124 458.38 237.824 458.476C237.524 458.572 237.26 458.62 237.032 458.62V457.432C237.308 457.432 237.608 457.354 237.932 457.198C238.268 457.042 238.58 456.862 238.868 456.658C239.168 456.454 239.42 456.262 239.624 456.082C239.828 455.902 239.942 455.782 239.966 455.722H241.226V464.884H243.512ZM248.889 460.384C249.477 460.384 250.023 460.486 250.527 460.69C251.031 460.882 251.469 461.158 251.841 461.518C252.225 461.878 252.525 462.31 252.741 462.814C252.957 463.306 253.065 463.852 253.065 464.452C253.065 465.088 252.945 465.664 252.705 466.18C252.477 466.708 252.159 467.152 251.751 467.512C251.355 467.884 250.887 468.172 250.347 468.376C249.807 468.58 249.231 468.682 248.619 468.682C248.163 468.682 247.725 468.622 247.305 468.502C246.897 468.394 246.519 468.232 246.171 468.016C245.823 467.8 245.505 467.542 245.217 467.242C244.941 466.942 244.713 466.606 244.533 466.234L245.343 465.622C245.679 466.21 246.135 466.684 246.711 467.044C247.299 467.404 247.941 467.584 248.637 467.584C249.081 467.584 249.495 467.506 249.879 467.35C250.263 467.206 250.599 466.996 250.887 466.72C251.175 466.444 251.397 466.114 251.553 465.73C251.721 465.346 251.805 464.926 251.805 464.47C251.805 464.026 251.727 463.624 251.571 463.264C251.415 462.892 251.199 462.574 250.923 462.31C250.647 462.046 250.323 461.842 249.951 461.698C249.579 461.554 249.177 461.482 248.745 461.482C248.181 461.482 247.647 461.608 247.143 461.86C246.651 462.1 246.249 462.454 245.937 462.922H244.803C244.815 462.85 244.845 462.688 244.893 462.436C244.941 462.184 245.001 461.884 245.073 461.536C245.145 461.188 245.223 460.804 245.307 460.384C245.391 459.952 245.475 459.52 245.559 459.088C245.763 458.08 245.985 456.958 246.225 455.722H252.399V456.856H247.143L246.261 461.446C246.573 461.11 246.951 460.852 247.395 460.672C247.851 460.48 248.349 460.384 248.889 460.384Z" fill="white"/>
<path d="M399.972 462.454C399.972 463.018 399.852 463.528 399.612 463.984C399.372 464.428 399.048 464.812 398.64 465.136C398.232 465.46 397.752 465.712 397.2 465.892C396.66 466.06 396.09 466.144 395.49 466.144C394.854 466.144 394.266 466.048 393.726 465.856C393.186 465.652 392.718 465.382 392.322 465.046C391.938 464.698 391.638 464.296 391.422 463.84C391.206 463.384 391.098 462.898 391.098 462.382C391.098 461.974 391.17 461.596 391.314 461.248C391.47 460.9 391.668 460.594 391.908 460.33C392.148 460.054 392.418 459.82 392.718 459.628C393.03 459.424 393.342 459.268 393.654 459.16C393.366 459.04 393.096 458.896 392.844 458.728C392.592 458.548 392.37 458.344 392.178 458.116C391.986 457.888 391.83 457.636 391.71 457.36C391.602 457.084 391.548 456.79 391.548 456.478C391.548 455.95 391.668 455.488 391.908 455.092C392.148 454.684 392.454 454.342 392.826 454.066C393.21 453.79 393.636 453.58 394.104 453.436C394.584 453.292 395.064 453.22 395.544 453.22C396.024 453.22 396.498 453.292 396.966 453.436C397.446 453.58 397.872 453.79 398.244 454.066C398.628 454.33 398.94 454.666 399.18 455.074C399.42 455.482 399.54 455.944 399.54 456.46C399.54 456.772 399.48 457.066 399.36 457.342C399.252 457.618 399.096 457.876 398.892 458.116C398.7 458.344 398.472 458.548 398.208 458.728C397.956 458.896 397.686 459.04 397.398 459.16C397.746 459.28 398.076 459.448 398.388 459.664C398.7 459.868 398.97 460.108 399.198 460.384C399.438 460.66 399.624 460.972 399.756 461.32C399.9 461.668 399.972 462.046 399.972 462.454ZM398.73 462.364C398.73 461.932 398.634 461.554 398.442 461.23C398.25 460.894 397.998 460.612 397.686 460.384C397.374 460.156 397.026 459.982 396.642 459.862C396.258 459.742 395.88 459.682 395.508 459.682C395.112 459.682 394.728 459.748 394.356 459.88C393.984 460 393.648 460.18 393.348 460.42C393.048 460.648 392.808 460.93 392.628 461.266C392.448 461.602 392.358 461.974 392.358 462.382C392.358 462.802 392.454 463.18 392.646 463.516C392.838 463.84 393.084 464.116 393.384 464.344C393.696 464.572 394.038 464.746 394.41 464.866C394.794 464.986 395.178 465.046 395.562 465.046C395.946 465.046 396.324 464.986 396.696 464.866C397.08 464.734 397.422 464.554 397.722 464.326C398.022 464.086 398.262 463.804 398.442 463.48C398.634 463.144 398.73 462.772 398.73 462.364ZM392.772 456.532C392.772 456.88 392.856 457.192 393.024 457.468C393.192 457.732 393.408 457.96 393.672 458.152C393.936 458.332 394.23 458.47 394.554 458.566C394.89 458.662 395.214 458.71 395.526 458.71C395.85 458.71 396.174 458.662 396.498 458.566C396.822 458.47 397.116 458.326 397.38 458.134C397.656 457.942 397.878 457.708 398.046 457.432C398.214 457.156 398.298 456.844 398.298 456.496C398.298 456.16 398.22 455.86 398.064 455.596C397.908 455.32 397.698 455.092 397.434 454.912C397.182 454.72 396.888 454.576 396.552 454.48C396.216 454.384 395.868 454.336 395.508 454.336C395.16 454.336 394.818 454.39 394.482 454.498C394.158 454.594 393.87 454.738 393.618 454.93C393.366 455.11 393.162 455.338 393.006 455.614C392.85 455.89 392.772 456.196 392.772 456.532ZM406.248 459.772C406.248 459.16 406.314 458.56 406.446 457.972C406.578 457.372 406.758 456.784 406.986 456.208C407.214 455.62 407.478 455.038 407.778 454.462C408.09 453.874 408.42 453.286 408.768 452.698L409.704 453.148C409.464 453.508 409.206 453.952 408.93 454.48C408.666 455.008 408.42 455.572 408.192 456.172C407.964 456.772 407.772 457.39 407.616 458.026C407.472 458.65 407.4 459.25 407.4 459.826C407.4 460.762 407.604 461.788 408.012 462.904C408.42 464.008 408.978 465.1 409.686 466.18L408.768 466.666C408.012 465.538 407.4 464.398 406.932 463.246C406.476 462.082 406.248 460.924 406.248 459.772ZM420.064 462.454C420.064 463.018 419.944 463.528 419.704 463.984C419.464 464.428 419.14 464.812 418.732 465.136C418.324 465.46 417.844 465.712 417.292 465.892C416.752 466.06 416.182 466.144 415.582 466.144C414.946 466.144 414.358 466.048 413.818 465.856C413.278 465.652 412.81 465.382 412.414 465.046C412.03 464.698 411.73 464.296 411.514 463.84C411.298 463.384 411.19 462.898 411.19 462.382C411.19 461.974 411.262 461.596 411.406 461.248C411.562 460.9 411.76 460.594 412 460.33C412.24 460.054 412.51 459.82 412.81 459.628C413.122 459.424 413.434 459.268 413.746 459.16C413.458 459.04 413.188 458.896 412.936 458.728C412.684 458.548 412.462 458.344 412.27 458.116C412.078 457.888 411.922 457.636 411.802 457.36C411.694 457.084 411.64 456.79 411.64 456.478C411.64 455.95 411.76 455.488 412 455.092C412.24 454.684 412.546 454.342 412.918 454.066C413.302 453.79 413.728 453.58 414.196 453.436C414.676 453.292 415.156 453.22 415.636 453.22C416.116 453.22 416.59 453.292 417.058 453.436C417.538 453.58 417.964 453.79 418.336 454.066C418.72 454.33 419.032 454.666 419.272 455.074C419.512 455.482 419.632 455.944 419.632 456.46C419.632 456.772 419.572 457.066 419.452 457.342C419.344 457.618 419.188 457.876 418.984 458.116C418.792 458.344 418.564 458.548 418.3 458.728C418.048 458.896 417.778 459.04 417.49 459.16C417.838 459.28 418.168 459.448 418.48 459.664C418.792 459.868 419.062 460.108 419.29 460.384C419.53 460.66 419.716 460.972 419.848 461.32C419.992 461.668 420.064 462.046 420.064 462.454ZM418.822 462.364C418.822 461.932 418.726 461.554 418.534 461.23C418.342 460.894 418.09 460.612 417.778 460.384C417.466 460.156 417.118 459.982 416.734 459.862C416.35 459.742 415.972 459.682 415.6 459.682C415.204 459.682 414.82 459.748 414.448 459.88C414.076 460 413.74 460.18 413.44 460.42C413.14 460.648 412.9 460.93 412.72 461.266C412.54 461.602 412.45 461.974 412.45 462.382C412.45 462.802 412.546 463.18 412.738 463.516C412.93 463.84 413.176 464.116 413.476 464.344C413.788 464.572 414.13 464.746 414.502 464.866C414.886 464.986 415.27 465.046 415.654 465.046C416.038 465.046 416.416 464.986 416.788 464.866C417.172 464.734 417.514 464.554 417.814 464.326C418.114 464.086 418.354 463.804 418.534 463.48C418.726 463.144 418.822 462.772 418.822 462.364ZM412.864 456.532C412.864 456.88 412.948 457.192 413.116 457.468C413.284 457.732 413.5 457.96 413.764 458.152C414.028 458.332 414.322 458.47 414.646 458.566C414.982 458.662 415.306 458.71 415.618 458.71C415.942 458.71 416.266 458.662 416.59 458.566C416.914 458.47 417.208 458.326 417.472 458.134C417.748 457.942 417.97 457.708 418.138 457.432C418.306 457.156 418.39 456.844 418.39 456.496C418.39 456.16 418.312 455.86 418.156 455.596C418 455.32 417.79 455.092 417.526 454.912C417.274 454.72 416.98 454.576 416.644 454.48C416.308 454.384 415.96 454.336 415.6 454.336C415.252 454.336 414.91 454.39 414.574 454.498C414.25 454.594 413.962 454.738 413.71 454.93C413.458 455.11 413.254 455.338 413.098 455.614C412.942 455.89 412.864 456.196 412.864 456.532ZM428.268 464.884V466H422.166V464.884H424.722V457.18C424.626 457.324 424.458 457.48 424.218 457.648C423.99 457.816 423.732 457.972 423.444 458.116C423.168 458.26 422.88 458.38 422.58 458.476C422.28 458.572 422.016 458.62 421.788 458.62V457.432C422.064 457.432 422.364 457.354 422.688 457.198C423.024 457.042 423.336 456.862 423.624 456.658C423.924 456.454 424.176 456.262 424.38 456.082C424.584 455.902 424.698 455.782 424.722 455.722H425.982V464.884H428.268ZM429.451 466C429.451 465.592 429.487 465.184 429.559 464.776C429.631 464.356 429.769 463.942 429.973 463.534C430.189 463.126 430.489 462.736 430.873 462.364C431.269 461.98 431.791 461.62 432.439 461.284C432.787 461.104 433.147 460.93 433.519 460.762C433.903 460.582 434.251 460.384 434.563 460.168C434.887 459.952 435.151 459.712 435.355 459.448C435.559 459.172 435.661 458.854 435.661 458.494C435.661 458.266 435.607 458.044 435.499 457.828C435.403 457.6 435.253 457.402 435.049 457.234C434.857 457.054 434.611 456.91 434.311 456.802C434.023 456.694 433.681 456.64 433.285 456.64C432.889 456.64 432.535 456.7 432.223 456.82C431.911 456.928 431.635 457.06 431.395 457.216C431.167 457.372 430.969 457.54 430.801 457.72C430.633 457.888 430.507 458.026 430.423 458.134L429.613 457.252C429.685 457.18 429.823 457.048 430.027 456.856C430.231 456.664 430.495 456.472 430.819 456.28C431.155 456.088 431.545 455.92 431.989 455.776C432.433 455.62 432.931 455.542 433.483 455.542C434.035 455.542 434.527 455.62 434.959 455.776C435.391 455.92 435.757 456.124 436.057 456.388C436.357 456.652 436.585 456.958 436.741 457.306C436.897 457.642 436.975 457.996 436.975 458.368C436.975 458.86 436.867 459.286 436.651 459.646C436.435 460.006 436.165 460.318 435.841 460.582C435.529 460.846 435.193 461.074 434.833 461.266C434.473 461.446 434.149 461.602 433.861 461.734C433.477 461.902 433.099 462.094 432.727 462.31C432.367 462.514 432.043 462.742 431.755 462.994C431.467 463.246 431.227 463.528 431.035 463.84C430.855 464.152 430.765 464.5 430.765 464.884H437.173V466H429.451ZM442.078 459.772C442.078 460.924 441.85 462.082 441.394 463.246C440.938 464.398 440.326 465.538 439.558 466.666L438.658 466.18C439.006 465.64 439.318 465.094 439.594 464.542C439.882 463.99 440.122 463.444 440.314 462.904C440.518 462.352 440.674 461.818 440.782 461.302C440.89 460.786 440.944 460.294 440.944 459.826C440.944 459.25 440.866 458.65 440.71 458.026C440.566 457.39 440.38 456.772 440.152 456.172C439.924 455.572 439.672 455.008 439.396 454.48C439.132 453.952 438.874 453.508 438.622 453.148L439.576 452.698C439.924 453.286 440.248 453.874 440.548 454.462C440.86 455.038 441.124 455.62 441.34 456.208C441.568 456.784 441.748 457.372 441.88 457.972C442.012 458.56 442.078 459.16 442.078 459.772ZM454.758 464.884V466H448.656V464.884H451.212V457.18C451.116 457.324 450.948 457.48 450.708 457.648C450.48 457.816 450.222 457.972 449.934 458.116C449.658 458.26 449.37 458.38 449.07 458.476C448.77 458.572 448.506 458.62 448.278 458.62V457.432C448.554 457.432 448.854 457.354 449.178 457.198C449.514 457.042 449.826 456.862 450.114 456.658C450.414 456.454 450.666 456.262 450.87 456.082C451.074 455.902 451.188 455.782 451.212 455.722H452.472V464.884H454.758ZM455.941 466C455.941 465.592 455.977 465.184 456.049 464.776C456.121 464.356 456.259 463.942 456.463 463.534C456.679 463.126 456.979 462.736 457.363 462.364C457.759 461.98 458.281 461.62 458.929 461.284C459.277 461.104 459.637 460.93 460.009 460.762C460.393 460.582 460.741 460.384 461.053 460.168C461.377 459.952 461.641 459.712 461.845 459.448C462.049 459.172 462.151 458.854 462.151 458.494C462.151 458.266 462.097 458.044 461.989 457.828C461.893 457.6 461.743 457.402 461.539 457.234C461.347 457.054 461.101 456.91 460.801 456.802C460.513 456.694 460.171 456.64 459.775 456.64C459.379 456.64 459.025 456.7 458.713 456.82C458.401 456.928 458.125 457.06 457.885 457.216C457.657 457.372 457.459 457.54 457.291 457.72C457.123 457.888 456.997 458.026 456.913 458.134L456.103 457.252C456.175 457.18 456.313 457.048 456.517 456.856C456.721 456.664 456.985 456.472 457.309 456.28C457.645 456.088 458.035 455.92 458.479 455.776C458.923 455.62 459.421 455.542 459.973 455.542C460.525 455.542 461.017 455.62 461.449 455.776C461.881 455.92 462.247 456.124 462.547 456.388C462.847 456.652 463.075 456.958 463.231 457.306C463.387 457.642 463.465 457.996 463.465 458.368C463.465 458.86 463.357 459.286 463.141 459.646C462.925 460.006 462.655 460.318 462.331 460.582C462.019 460.846 461.683 461.074 461.323 461.266C460.963 461.446 460.639 461.602 460.351 461.734C459.967 461.902 459.589 462.094 459.217 462.31C458.857 462.514 458.533 462.742 458.245 462.994C457.957 463.246 457.717 463.528 457.525 463.84C457.345 464.152 457.255 464.5 457.255 464.884H463.663V466H455.941ZM470.71 461.752C471.502 461.884 472.132 462.244 472.6 462.832C473.08 463.42 473.32 464.146 473.32 465.01C473.32 465.55 473.218 466.042 473.014 466.486C472.822 466.942 472.54 467.326 472.168 467.638C471.808 467.962 471.37 468.208 470.854 468.376C470.35 468.556 469.786 468.646 469.162 468.646C468.25 468.646 467.452 468.46 466.768 468.088C466.084 467.728 465.568 467.224 465.22 466.576L466.066 465.802C466.318 466.33 466.702 466.75 467.218 467.062C467.734 467.374 468.382 467.53 469.162 467.53C470.062 467.53 470.77 467.308 471.286 466.864C471.802 466.432 472.06 465.808 472.06 464.992C472.06 464.164 471.79 463.51 471.25 463.03C470.71 462.55 469.93 462.31 468.91 462.31H468.46V461.266H468.946C469.87 461.266 470.578 461.056 471.07 460.636C471.562 460.204 471.808 459.646 471.808 458.962C471.808 458.602 471.742 458.284 471.61 458.008C471.478 457.732 471.292 457.504 471.052 457.324C470.824 457.132 470.548 456.988 470.224 456.892C469.912 456.796 469.57 456.748 469.198 456.748C468.514 456.748 467.908 456.904 467.38 457.216C466.864 457.516 466.474 457.936 466.21 458.476L465.418 457.72C465.562 457.408 465.766 457.126 466.03 456.874C466.294 456.61 466.594 456.388 466.93 456.208C467.266 456.028 467.638 455.89 468.046 455.794C468.454 455.686 468.874 455.632 469.306 455.632C469.858 455.632 470.362 455.71 470.818 455.866C471.286 456.022 471.688 456.244 472.024 456.532C472.36 456.808 472.618 457.144 472.798 457.54C472.99 457.936 473.086 458.374 473.086 458.854C473.086 459.214 473.032 459.562 472.924 459.898C472.816 460.222 472.66 460.516 472.456 460.78C472.252 461.032 472 461.248 471.7 461.428C471.412 461.596 471.082 461.704 470.71 461.752ZM475.321 461.662V460.528H480.577V461.662H475.321ZM487.731 468.286V465.082H481.737V464.002L488.127 455.722H488.955V463.966H490.539V465.082H488.955V468.286H487.731ZM483.033 463.966H487.857V457.648L483.033 463.966ZM496.135 460.384C496.723 460.384 497.269 460.486 497.773 460.69C498.277 460.882 498.715 461.158 499.087 461.518C499.471 461.878 499.771 462.31 499.987 462.814C500.203 463.306 500.311 463.852 500.311 464.452C500.311 465.088 500.191 465.664 499.951 466.18C499.723 466.708 499.405 467.152 498.997 467.512C498.601 467.884 498.133 468.172 497.593 468.376C497.053 468.58 496.477 468.682 495.865 468.682C495.409 468.682 494.971 468.622 494.551 468.502C494.143 468.394 493.765 468.232 493.417 468.016C493.069 467.8 492.751 467.542 492.463 467.242C492.187 466.942 491.959 466.606 491.779 466.234L492.589 465.622C492.925 466.21 493.381 466.684 493.957 467.044C494.545 467.404 495.187 467.584 495.883 467.584C496.327 467.584 496.741 467.506 497.125 467.35C497.509 467.206 497.845 466.996 498.133 466.72C498.421 466.444 498.643 466.114 498.799 465.73C498.967 465.346 499.051 464.926 499.051 464.47C499.051 464.026 498.973 463.624 498.817 463.264C498.661 462.892 498.445 462.574 498.169 462.31C497.893 462.046 497.569 461.842 497.197 461.698C496.825 461.554 496.423 461.482 495.991 461.482C495.427 461.482 494.893 461.608 494.389 461.86C493.897 462.1 493.495 462.454 493.183 462.922H492.049C492.061 462.85 492.091 462.688 492.139 462.436C492.187 462.184 492.247 461.884 492.319 461.536C492.391 461.188 492.469 460.804 492.553 460.384C492.637 459.952 492.721 459.52 492.805 459.088C493.009 458.08 493.231 456.958 493.471 455.722H499.645V456.856H494.389L493.507 461.446C493.819 461.11 494.197 460.852 494.641 460.672C495.097 460.48 495.595 460.384 496.135 460.384ZM501.899 461.662V460.528H507.155V461.662H501.899ZM518.385 461.788C518.385 462.4 518.265 462.976 518.025 463.516C517.797 464.044 517.479 464.506 517.071 464.902C516.663 465.298 516.183 465.61 515.631 465.838C515.079 466.066 514.485 466.18 513.849 466.18C513.177 466.18 512.559 466.06 511.995 465.82C511.431 465.568 510.945 465.214 510.537 464.758C510.141 464.302 509.829 463.744 509.601 463.084C509.373 462.412 509.259 461.662 509.259 460.834C509.259 459.538 509.373 458.41 509.601 457.45C509.829 456.478 510.147 455.674 510.555 455.038C510.975 454.39 511.473 453.91 512.049 453.598C512.625 453.286 513.267 453.13 513.975 453.13C514.827 453.13 515.589 453.34 516.261 453.76C516.933 454.18 517.443 454.762 517.791 455.506L516.999 456.226C516.747 455.614 516.351 455.128 515.811 454.768C515.271 454.396 514.659 454.21 513.975 454.21C513.447 454.21 512.967 454.336 512.535 454.588C512.103 454.84 511.731 455.206 511.419 455.686C511.119 456.154 510.879 456.736 510.699 457.432C510.531 458.128 510.447 458.914 510.447 459.79C510.711 459.082 511.161 458.518 511.797 458.098C512.445 457.678 513.177 457.468 513.993 457.468C514.605 457.468 515.175 457.582 515.703 457.81C516.243 458.026 516.711 458.332 517.107 458.728C517.503 459.112 517.815 459.568 518.043 460.096C518.271 460.624 518.385 461.188 518.385 461.788ZM513.885 465.1C514.341 465.1 514.767 465.016 515.163 464.848C515.571 464.668 515.925 464.428 516.225 464.128C516.537 463.828 516.777 463.48 516.945 463.084C517.125 462.676 517.215 462.244 517.215 461.788C517.215 461.332 517.125 460.906 516.945 460.51C516.765 460.102 516.519 459.748 516.207 459.448C515.907 459.148 515.553 458.914 515.145 458.746C514.749 458.566 514.323 458.476 513.867 458.476C513.411 458.476 512.979 458.566 512.571 458.746C512.175 458.914 511.821 459.148 511.509 459.448C511.209 459.748 510.969 460.102 510.789 460.51C510.621 460.906 510.537 461.332 510.537 461.788C510.537 462.244 510.627 462.67 510.807 463.066C510.987 463.462 511.227 463.816 511.527 464.128C511.839 464.428 512.193 464.668 512.589 464.848C512.997 465.016 513.429 465.1 513.885 465.1ZM526.675 456.64H519.781V455.506H528.619L522.157 468.286H520.753L526.675 456.64Z" fill="white"/>
<path d="M10.5683 453.602C9.08837 453.602 7.88376 454.807 7.88376 456.287C7.88376 457.767 9.08837 458.971 10.5683 458.971C12.0483 458.971 13.2529 457.767 13.2529 456.287C13.2529 454.807 12.0483 453.602 10.5683 453.602ZM10.5683 458.204C9.511 458.204 8.65078 457.344 8.65078 456.287C8.65078 455.229 9.511 454.369 10.5683 454.369C11.6257 454.369 12.4859 455.229 12.4859 456.287C12.4859 457.344 11.6257 458.204 10.5683 458.204Z" fill="white"/>
<path d="M15.7012 451.154C14.3121 449.765 12.4651 449 10.5007 449C8.53599 449 6.68938 449.765 5.3003 451.154C2.72961 453.724 2.41015 458.561 4.60844 461.491L10.5007 470L16.3842 461.503C18.5913 458.561 18.2718 453.724 15.7012 451.154ZM15.7621 461.054L10.5007 468.652L5.23088 461.042C3.237 458.384 3.52272 454.016 5.84297 451.696C7.08708 450.452 8.74117 449.767 10.5007 449.767C12.2603 449.767 13.9144 450.452 15.1589 451.696C17.4791 454.016 17.7648 458.384 15.7621 461.054Z" fill="white"/>
<g clip-path="url(#clip1)">
<path d="M374.986 466.284C374.92 465.779 374.628 465.344 374.187 465.09L369.006 462.107C368.372 461.742 367.567 461.848 367.049 462.366L366.029 463.387C365.757 463.658 365.327 463.682 365.029 463.442C364.225 462.795 363.433 462.083 362.675 461.325C361.918 460.567 361.205 459.775 360.558 458.971C360.318 458.673 360.342 458.243 360.614 457.972L361.634 456.951C362.152 456.433 362.258 455.629 361.893 454.994L358.91 449.813C358.656 449.372 358.221 449.081 357.716 449.014C357.212 448.947 356.716 449.115 356.356 449.475L354.818 451.013C353.745 452.086 353.728 454.049 354.77 456.541C355.772 458.936 357.641 461.573 360.034 463.966C362.427 466.359 365.064 468.229 367.46 469.231C368.686 469.743 369.784 470 370.712 470C371.668 470 372.442 469.727 372.987 469.182L374.525 467.644C374.885 467.284 375.053 466.788 374.986 466.284ZM368.667 462.697L373.848 465.68C374.104 465.827 374.273 466.08 374.312 466.373C374.344 466.619 374.281 466.861 374.136 467.056L367.25 463.127L367.53 462.847C367.831 462.547 368.298 462.485 368.667 462.697ZM357.627 449.688C357.92 449.727 358.173 449.896 358.32 450.153L361.303 455.333C361.516 455.702 361.454 456.169 361.153 456.47L360.896 456.727L356.945 449.865C357.107 449.745 357.3 449.68 357.501 449.68C357.543 449.68 357.585 449.683 357.627 449.688ZM372.506 468.701C371.654 469.553 369.91 469.518 367.722 468.603C365.406 467.634 362.847 465.817 360.515 463.485C358.183 461.153 356.366 458.594 355.398 456.278C354.483 454.09 354.447 452.347 355.299 451.494L356.441 450.352L360.398 457.225L360.133 457.491C359.615 458.008 359.57 458.828 360.028 459.397C360.69 460.221 361.419 461.031 362.194 461.806C362.969 462.581 363.779 463.31 364.603 463.973C365.172 464.431 365.992 464.386 366.51 463.868L366.752 463.626L373.647 467.561L372.506 468.701Z" fill="white"/>
</g>
<defs>
<clipPath id="clip0">
<rect width="40" height="40" fill="white" transform="translate(284 209)"/>
</clipPath>
<clipPath id="clip1">
<rect width="21" height="21" fill="white" transform="translate(354 449)"/>
</clipPath>
</defs>
</svg>
