<svg width="541" height="16" viewBox="0 0 541 16" fill="none" xmlns="http://www.w3.org/2000/svg">
<path d="M5.264 13.07C4.57333 13.07 3.93867 12.93 3.36 12.65C2.79067 12.3607 2.30067 11.9827 1.89 11.516C1.47933 11.04 1.162 10.4987 0.938 9.892C0.714 9.28533 0.602 8.66467 0.602 8.03C0.602 7.36733 0.718667 6.73267 0.952 6.126C1.19467 5.51933 1.526 4.98267 1.946 4.516C2.366 4.04933 2.86067 3.68067 3.43 3.41C3.99933 3.13 4.61533 2.99 5.278 2.99C5.96867 2.99 6.59867 3.13933 7.168 3.438C7.74667 3.72733 8.23667 4.11 8.638 4.586C9.04867 5.062 9.366 5.60333 9.59 6.21C9.814 6.80733 9.926 7.41867 9.926 8.044C9.926 8.70667 9.80467 9.34133 9.562 9.948C9.32867 10.5547 9.002 11.0913 8.582 11.558C8.17133 12.0153 7.68133 12.384 7.112 12.664C6.54267 12.9347 5.92667 13.07 5.264 13.07ZM1.582 8.03C1.582 8.57133 1.67067 9.094 1.848 9.598C2.02533 10.0927 2.27733 10.536 2.604 10.928C2.93067 11.3107 3.318 11.6187 3.766 11.852C4.214 12.076 4.71333 12.188 5.264 12.188C5.824 12.188 6.33267 12.0667 6.79 11.824C7.24733 11.5813 7.63467 11.264 7.952 10.872C8.26933 10.48 8.512 10.0367 8.68 9.542C8.85733 9.04733 8.946 8.54333 8.946 8.03C8.946 7.48867 8.85267 6.97067 8.666 6.476C8.48867 5.972 8.23667 5.52867 7.91 5.146C7.58333 4.76333 7.196 4.46 6.748 4.236C6.3 4.00267 5.80533 3.886 5.264 3.886C4.704 3.886 4.19533 4.00733 3.738 4.25C3.28067 4.48333 2.89333 4.796 2.576 5.188C2.25867 5.58 2.01133 6.02333 1.834 6.518C1.666 7.01267 1.582 7.51667 1.582 8.03ZM20.858 5.706H21.922L19.164 9.234L22.16 13H21.096L18.52 9.668H17.484V13H16.546V5.706H17.484V8.926H18.436L20.858 5.706ZM26.8478 13.14C26.3158 13.14 25.8305 13.042 25.3918 12.846C24.9532 12.6407 24.5705 12.3653 24.2438 12.02C23.9265 11.6747 23.6792 11.2733 23.5018 10.816C23.3245 10.3587 23.2358 9.878 23.2358 9.374C23.2358 8.86067 23.3245 8.37533 23.5018 7.918C23.6885 7.46067 23.9405 7.05933 24.2578 6.714C24.5845 6.36867 24.9672 6.09333 25.4058 5.888C25.8445 5.68267 26.3252 5.58 26.8478 5.58C27.3705 5.58 27.8512 5.68267 28.2898 5.888C28.7378 6.09333 29.1205 6.36867 29.4378 6.714C29.7645 7.05933 30.0165 7.46067 30.1938 7.918C30.3805 8.37533 30.4738 8.86067 30.4738 9.374C30.4738 9.878 30.3852 10.3587 30.2078 10.816C30.0305 11.2733 29.7785 11.6747 29.4518 12.02C29.1345 12.3653 28.7518 12.6407 28.3038 12.846C27.8652 13.042 27.3798 13.14 26.8478 13.14ZM24.2018 9.388C24.2018 9.79867 24.2718 10.1813 24.4118 10.536C24.5518 10.8813 24.7385 11.1893 24.9718 11.46C25.2145 11.7213 25.4945 11.9267 25.8118 12.076C26.1385 12.2253 26.4838 12.3 26.8478 12.3C27.2118 12.3 27.5525 12.2253 27.8698 12.076C28.1965 11.9173 28.4812 11.7073 28.7238 11.446C28.9665 11.1753 29.1578 10.8627 29.2978 10.508C29.4378 10.1533 29.5078 9.77067 29.5078 9.36C29.5078 8.95867 29.4378 8.58067 29.2978 8.226C29.1578 7.862 28.9665 7.54933 28.7238 7.288C28.4812 7.01733 28.1965 6.80733 27.8698 6.658C27.5525 6.49933 27.2118 6.42 26.8478 6.42C26.4838 6.42 26.1432 6.49933 25.8258 6.658C25.5085 6.80733 25.2285 7.01733 24.9858 7.288C24.7432 7.55867 24.5518 7.876 24.4118 8.24C24.2718 8.59467 24.2018 8.97733 24.2018 9.388ZM36.462 10.62L39.192 5.706H40.116V13H39.192V7.4L36.742 11.782H36.182L33.718 7.4V13H32.78V5.706H33.732L36.462 10.62ZM48.681 13H47.757V6.532H43.879V13H42.941V5.706H48.681V13ZM50.5496 12.202C50.811 12.1833 51.0396 12.1133 51.2356 11.992C51.4316 11.8613 51.5996 11.6327 51.7396 11.306C51.889 10.97 52.015 10.5127 52.1176 9.934C52.2296 9.35533 52.337 8.604 52.4396 7.68L52.6496 5.706H56.9336V13H55.9956V6.462H53.5316L53.3356 8.086C53.2143 9.05667 53.079 9.85933 52.9296 10.494C52.7803 11.1193 52.603 11.6233 52.3976 12.006C52.2016 12.3793 51.9636 12.6453 51.6836 12.804C51.4036 12.9533 51.077 13.0373 50.7036 13.056L50.5496 12.202ZM62.8988 13.14C62.3668 13.14 61.8768 13.042 61.4288 12.846C60.9902 12.6407 60.6075 12.3653 60.2808 12.02C59.9542 11.6653 59.6975 11.2593 59.5108 10.802C59.3335 10.3447 59.2448 9.85467 59.2448 9.332C59.2448 8.81867 59.3335 8.338 59.5108 7.89C59.6975 7.43267 59.9495 7.036 60.2668 6.7C60.5935 6.35467 60.9808 6.084 61.4288 5.888C61.8768 5.68267 62.3622 5.58 62.8848 5.58C63.4168 5.58 63.9022 5.68267 64.3408 5.888C64.7888 6.084 65.1715 6.35467 65.4888 6.7C65.8062 7.04533 66.0535 7.442 66.2308 7.89C66.4082 8.338 66.4968 8.814 66.4968 9.318C66.4968 9.39267 66.4968 9.46733 66.4968 9.542C66.4968 9.61667 66.4922 9.668 66.4828 9.696H60.2388C60.2668 10.088 60.3555 10.452 60.5048 10.788C60.6635 11.1147 60.8642 11.3993 61.1068 11.642C61.3495 11.8847 61.6248 12.076 61.9328 12.216C62.2502 12.3467 62.5862 12.412 62.9408 12.412C63.1742 12.412 63.4075 12.3793 63.6408 12.314C63.8742 12.2487 64.0888 12.16 64.2848 12.048C64.4808 11.936 64.6582 11.8007 64.8168 11.642C64.9755 11.474 65.0968 11.292 65.1808 11.096L66.0068 11.32C65.8948 11.5907 65.7362 11.838 65.5308 12.062C65.3255 12.2767 65.0875 12.468 64.8168 12.636C64.5462 12.7947 64.2475 12.916 63.9208 13C63.5942 13.0933 63.2535 13.14 62.8988 13.14ZM65.5868 8.968C65.5588 8.576 65.4655 8.22133 65.3068 7.904C65.1575 7.57733 64.9615 7.29733 64.7188 7.064C64.4855 6.83067 64.2102 6.64867 63.8928 6.518C63.5848 6.38733 63.2535 6.322 62.8988 6.322C62.5442 6.322 62.2082 6.38733 61.8908 6.518C61.5735 6.64867 61.2935 6.83067 61.0508 7.064C60.8175 7.29733 60.6262 7.57733 60.4768 7.904C60.3368 8.23067 60.2528 8.58533 60.2248 8.968H65.5868ZM72.9916 5.706H74.0556L71.2976 9.234L74.2936 13H73.2296L70.6536 9.668H69.6176V13H68.6796V5.706H69.6176V8.926H70.5696L72.9916 5.706ZM75.3694 9.332C75.3694 8.81867 75.4581 8.33333 75.6354 7.876C75.8128 7.41867 76.0601 7.022 76.3774 6.686C76.7041 6.34067 77.0914 6.07 77.5394 5.874C77.9874 5.678 78.4821 5.58 79.0234 5.58C79.7141 5.58 80.3161 5.73867 80.8294 6.056C81.3428 6.364 81.7301 6.784 81.9914 7.316L81.0674 7.61C80.8621 7.23667 80.5728 6.94733 80.1994 6.742C79.8354 6.52733 79.4294 6.42 78.9814 6.42C78.6081 6.42 78.2581 6.49467 77.9314 6.644C77.6141 6.79333 77.3341 6.99867 77.0914 7.26C76.8581 7.512 76.6714 7.81533 76.5314 8.17C76.4008 8.52467 76.3354 8.912 76.3354 9.332C76.3354 9.74267 76.4054 10.13 76.5454 10.494C76.6854 10.858 76.8768 11.1753 77.1194 11.446C77.3621 11.7073 77.6421 11.9173 77.9594 12.076C78.2861 12.2253 78.6314 12.3 78.9954 12.3C79.2288 12.3 79.4574 12.2673 79.6814 12.202C79.9148 12.1367 80.1294 12.048 80.3254 11.936C80.5214 11.8147 80.6894 11.6793 80.8294 11.53C80.9694 11.3807 81.0674 11.222 81.1234 11.054L82.0614 11.334C81.9588 11.5953 81.8094 11.838 81.6134 12.062C81.4174 12.2767 81.1841 12.468 80.9134 12.636C80.6521 12.7947 80.3581 12.916 80.0314 13C79.7141 13.0933 79.3828 13.14 79.0374 13.14C78.5054 13.14 78.0154 13.042 77.5674 12.846C77.1194 12.6407 76.7321 12.3653 76.4054 12.02C76.0788 11.6653 75.8221 11.2593 75.6354 10.802C75.4581 10.3447 75.3694 9.85467 75.3694 9.332ZM87.325 13.14C86.793 13.14 86.303 13.042 85.855 12.846C85.4163 12.6407 85.0337 12.3653 84.707 12.02C84.3803 11.6653 84.1237 11.2593 83.937 10.802C83.7597 10.3447 83.671 9.85467 83.671 9.332C83.671 8.81867 83.7597 8.338 83.937 7.89C84.1237 7.43267 84.3757 7.036 84.693 6.7C85.0197 6.35467 85.407 6.084 85.855 5.888C86.303 5.68267 86.7883 5.58 87.311 5.58C87.843 5.58 88.3283 5.68267 88.767 5.888C89.215 6.084 89.5977 6.35467 89.915 6.7C90.2323 7.04533 90.4797 7.442 90.657 7.89C90.8343 8.338 90.923 8.814 90.923 9.318C90.923 9.39267 90.923 9.46733 90.923 9.542C90.923 9.61667 90.9183 9.668 90.909 9.696H84.665C84.693 10.088 84.7817 10.452 84.931 10.788C85.0897 11.1147 85.2903 11.3993 85.533 11.642C85.7757 11.8847 86.051 12.076 86.359 12.216C86.6763 12.3467 87.0123 12.412 87.367 12.412C87.6003 12.412 87.8337 12.3793 88.067 12.314C88.3003 12.2487 88.515 12.16 88.711 12.048C88.907 11.936 89.0843 11.8007 89.243 11.642C89.4017 11.474 89.523 11.292 89.607 11.096L90.433 11.32C90.321 11.5907 90.1623 11.838 89.957 12.062C89.7517 12.2767 89.5137 12.468 89.243 12.636C88.9723 12.7947 88.6737 12.916 88.347 13C88.0203 13.0933 87.6797 13.14 87.325 13.14ZM90.013 8.968C89.985 8.576 89.8917 8.22133 89.733 7.904C89.5837 7.57733 89.3877 7.29733 89.145 7.064C88.9117 6.83067 88.6363 6.64867 88.319 6.518C88.011 6.38733 87.6797 6.322 87.325 6.322C86.9703 6.322 86.6343 6.38733 86.317 6.518C85.9997 6.64867 85.7197 6.83067 85.477 7.064C85.2437 7.29733 85.0523 7.57733 84.903 7.904C84.763 8.23067 84.679 8.58533 84.651 8.968H90.013Z" fill="white"/>
<path d="M133.26 13V3.06H137.376C137.805 3.06 138.197 3.15333 138.552 3.34C138.916 3.51733 139.229 3.75533 139.49 4.054C139.751 4.34333 139.957 4.67467 140.106 5.048C140.255 5.42133 140.33 5.79933 140.33 6.182C140.33 6.59267 140.26 6.98933 140.12 7.372C139.98 7.74533 139.784 8.07667 139.532 8.366C139.28 8.65533 138.977 8.88867 138.622 9.066C138.277 9.24333 137.889 9.332 137.46 9.332H134.24V13H133.26ZM134.24 8.464H137.418C137.707 8.464 137.969 8.40333 138.202 8.282C138.445 8.15133 138.65 7.98333 138.818 7.778C138.986 7.56333 139.117 7.32067 139.21 7.05C139.303 6.77 139.35 6.48067 139.35 6.182C139.35 5.874 139.294 5.58467 139.182 5.314C139.079 5.034 138.935 4.79133 138.748 4.586C138.571 4.38067 138.356 4.222 138.104 4.11C137.861 3.98867 137.605 3.928 137.334 3.928H134.24V8.464ZM144.238 13.14C143.893 13.14 143.571 13.084 143.272 12.972C142.983 12.8507 142.726 12.6873 142.502 12.482C142.288 12.2767 142.12 12.0387 141.998 11.768C141.877 11.488 141.816 11.1893 141.816 10.872C141.816 10.5547 141.891 10.2607 142.04 9.99C142.19 9.71933 142.4 9.486 142.67 9.29C142.941 9.094 143.263 8.94467 143.636 8.842C144.01 8.73 144.42 8.674 144.868 8.674C145.242 8.674 145.62 8.70667 146.002 8.772C146.385 8.83733 146.726 8.93067 147.024 9.052V8.394C147.024 7.75 146.842 7.24133 146.478 6.868C146.114 6.48533 145.61 6.294 144.966 6.294C144.593 6.294 144.21 6.36867 143.818 6.518C143.426 6.66733 143.03 6.882 142.628 7.162L142.292 6.532C143.235 5.89733 144.15 5.58 145.036 5.58C145.951 5.58 146.67 5.83667 147.192 6.35C147.715 6.86333 147.976 7.57267 147.976 8.478V11.768C147.976 12.0293 148.093 12.16 148.326 12.16V13C148.168 13.028 148.046 13.042 147.962 13.042C147.72 13.042 147.528 12.9813 147.388 12.86C147.258 12.7387 147.188 12.5707 147.178 12.356L147.15 11.782C146.814 12.2207 146.39 12.5567 145.876 12.79C145.372 13.0233 144.826 13.14 144.238 13.14ZM144.462 12.412C144.957 12.412 145.41 12.3187 145.82 12.132C146.24 11.9453 146.558 11.698 146.772 11.39C146.856 11.306 146.917 11.2173 146.954 11.124C147.001 11.0213 147.024 10.928 147.024 10.844V9.654C146.707 9.53267 146.376 9.43933 146.03 9.374C145.694 9.30867 145.349 9.276 144.994 9.276C144.322 9.276 143.776 9.416 143.356 9.696C142.936 9.976 142.726 10.3447 142.726 10.802C142.726 11.026 142.768 11.236 142.852 11.432C142.946 11.628 143.067 11.8007 143.216 11.95C143.375 12.09 143.562 12.202 143.776 12.286C143.991 12.37 144.22 12.412 144.462 12.412ZM155.843 2.976C155.824 3.41467 155.642 3.75067 155.297 3.984C154.961 4.208 154.494 4.32 153.897 4.32C153.29 4.32 152.819 4.208 152.483 3.984C152.147 3.75067 151.965 3.41467 151.937 2.976H152.539C152.558 3.29333 152.679 3.51733 152.903 3.648C153.127 3.76933 153.458 3.83 153.897 3.83C154.336 3.83 154.662 3.76933 154.877 3.648C155.101 3.52667 155.227 3.30267 155.255 2.976H155.843ZM151.699 11.656L156.053 5.706H156.823V13H155.885V7.162L151.615 13H150.761V5.706H151.699V11.656ZM162.744 13.14C162.212 13.14 161.727 13.042 161.288 12.846C160.85 12.6407 160.467 12.3653 160.14 12.02C159.823 11.6747 159.576 11.2733 159.398 10.816C159.221 10.3587 159.132 9.878 159.132 9.374C159.132 8.86067 159.221 8.37533 159.398 7.918C159.585 7.46067 159.837 7.05933 160.154 6.714C160.481 6.36867 160.864 6.09333 161.302 5.888C161.741 5.68267 162.222 5.58 162.744 5.58C163.267 5.58 163.748 5.68267 164.186 5.888C164.634 6.09333 165.017 6.36867 165.334 6.714C165.661 7.05933 165.913 7.46067 166.09 7.918C166.277 8.37533 166.37 8.86067 166.37 9.374C166.37 9.878 166.282 10.3587 166.104 10.816C165.927 11.2733 165.675 11.6747 165.348 12.02C165.031 12.3653 164.648 12.6407 164.2 12.846C163.762 13.042 163.276 13.14 162.744 13.14ZM160.098 9.388C160.098 9.79867 160.168 10.1813 160.308 10.536C160.448 10.8813 160.635 11.1893 160.868 11.46C161.111 11.7213 161.391 11.9267 161.708 12.076C162.035 12.2253 162.38 12.3 162.744 12.3C163.108 12.3 163.449 12.2253 163.766 12.076C164.093 11.9173 164.378 11.7073 164.62 11.446C164.863 11.1753 165.054 10.8627 165.194 10.508C165.334 10.1533 165.404 9.77067 165.404 9.36C165.404 8.95867 165.334 8.58067 165.194 8.226C165.054 7.862 164.863 7.54933 164.62 7.288C164.378 7.01733 164.093 6.80733 163.766 6.658C163.449 6.49933 163.108 6.42 162.744 6.42C162.38 6.42 162.04 6.49933 161.722 6.658C161.405 6.80733 161.125 7.01733 160.882 7.288C160.64 7.55867 160.448 7.876 160.308 8.24C160.168 8.59467 160.098 8.97733 160.098 9.388ZM169.614 8.856H173.702V5.706H174.64V13H173.702V9.654H169.614V13H168.676V5.706H169.614V8.856Z" fill="white"/>
<path d="M218.24 7.47H219.752L223 3.06H224.12L220.634 7.848L224.484 13H223.364L219.836 8.338H218.24V13H217.274V3.06H218.24V7.47ZM228.033 13.14C227.688 13.14 227.366 13.084 227.067 12.972C226.778 12.8507 226.521 12.6873 226.297 12.482C226.083 12.2767 225.915 12.0387 225.793 11.768C225.672 11.488 225.611 11.1893 225.611 10.872C225.611 10.5547 225.686 10.2607 225.835 9.99C225.985 9.71933 226.195 9.486 226.465 9.29C226.736 9.094 227.058 8.94467 227.431 8.842C227.805 8.73 228.215 8.674 228.663 8.674C229.037 8.674 229.415 8.70667 229.797 8.772C230.18 8.83733 230.521 8.93067 230.819 9.052V8.394C230.819 7.75 230.637 7.24133 230.273 6.868C229.909 6.48533 229.405 6.294 228.761 6.294C228.388 6.294 228.005 6.36867 227.613 6.518C227.221 6.66733 226.825 6.882 226.423 7.162L226.087 6.532C227.03 5.89733 227.945 5.58 228.831 5.58C229.746 5.58 230.465 5.83667 230.987 6.35C231.51 6.86333 231.771 7.57267 231.771 8.478V11.768C231.771 12.0293 231.888 12.16 232.121 12.16V13C231.963 13.028 231.841 13.042 231.757 13.042C231.515 13.042 231.323 12.9813 231.183 12.86C231.053 12.7387 230.983 12.5707 230.973 12.356L230.945 11.782C230.609 12.2207 230.185 12.5567 229.671 12.79C229.167 13.0233 228.621 13.14 228.033 13.14ZM228.257 12.412C228.752 12.412 229.205 12.3187 229.615 12.132C230.035 11.9453 230.353 11.698 230.567 11.39C230.651 11.306 230.712 11.2173 230.749 11.124C230.796 11.0213 230.819 10.928 230.819 10.844V9.654C230.502 9.53267 230.171 9.43933 229.825 9.374C229.489 9.30867 229.144 9.276 228.789 9.276C228.117 9.276 227.571 9.416 227.151 9.696C226.731 9.976 226.521 10.3447 226.521 10.802C226.521 11.026 226.563 11.236 226.647 11.432C226.741 11.628 226.862 11.8007 227.011 11.95C227.17 12.09 227.357 12.202 227.571 12.286C227.786 12.37 228.015 12.412 228.257 12.412ZM237.067 13H236.143V6.532H233.581V5.706H239.629V6.532H237.067V13ZM243.365 13.14C243.02 13.14 242.698 13.084 242.399 12.972C242.11 12.8507 241.853 12.6873 241.629 12.482C241.414 12.2767 241.246 12.0387 241.125 11.768C241.004 11.488 240.943 11.1893 240.943 10.872C240.943 10.5547 241.018 10.2607 241.167 9.99C241.316 9.71933 241.526 9.486 241.797 9.29C242.068 9.094 242.39 8.94467 242.763 8.842C243.136 8.73 243.547 8.674 243.995 8.674C244.368 8.674 244.746 8.70667 245.129 8.772C245.512 8.83733 245.852 8.93067 246.151 9.052V8.394C246.151 7.75 245.969 7.24133 245.605 6.868C245.241 6.48533 244.737 6.294 244.093 6.294C243.72 6.294 243.337 6.36867 242.945 6.518C242.553 6.66733 242.156 6.882 241.755 7.162L241.419 6.532C242.362 5.89733 243.276 5.58 244.163 5.58C245.078 5.58 245.796 5.83667 246.319 6.35C246.842 6.86333 247.103 7.57267 247.103 8.478V11.768C247.103 12.0293 247.22 12.16 247.453 12.16V13C247.294 13.028 247.173 13.042 247.089 13.042C246.846 13.042 246.655 12.9813 246.515 12.86C246.384 12.7387 246.314 12.5707 246.305 12.356L246.277 11.782C245.941 12.2207 245.516 12.5567 245.003 12.79C244.499 13.0233 243.953 13.14 243.365 13.14ZM243.589 12.412C244.084 12.412 244.536 12.3187 244.947 12.132C245.367 11.9453 245.684 11.698 245.899 11.39C245.983 11.306 246.044 11.2173 246.081 11.124C246.128 11.0213 246.151 10.928 246.151 10.844V9.654C245.834 9.53267 245.502 9.43933 245.157 9.374C244.821 9.30867 244.476 9.276 244.121 9.276C243.449 9.276 242.903 9.416 242.483 9.696C242.063 9.976 241.853 10.3447 241.853 10.802C241.853 11.026 241.895 11.236 241.979 11.432C242.072 11.628 242.194 11.8007 242.343 11.95C242.502 12.09 242.688 12.202 242.903 12.286C243.118 12.37 243.346 12.412 243.589 12.412ZM248.907 12.202C249.169 12.1833 249.397 12.1133 249.593 11.992C249.789 11.8613 249.957 11.6327 250.097 11.306C250.247 10.97 250.373 10.5127 250.475 9.934C250.587 9.35533 250.695 8.604 250.797 7.68L251.007 5.706H255.291V13H254.353V6.462H251.889L251.693 8.086C251.572 9.05667 251.437 9.85933 251.287 10.494C251.138 11.1193 250.961 11.6233 250.755 12.006C250.559 12.3793 250.321 12.6453 250.041 12.804C249.761 12.9533 249.435 13.0373 249.061 13.056L248.907 12.202ZM261.215 13.14C260.683 13.14 260.197 13.042 259.759 12.846C259.32 12.6407 258.937 12.3653 258.611 12.02C258.293 11.6747 258.046 11.2733 257.869 10.816C257.691 10.3587 257.603 9.878 257.603 9.374C257.603 8.86067 257.691 8.37533 257.869 7.918C258.055 7.46067 258.307 7.05933 258.625 6.714C258.951 6.36867 259.334 6.09333 259.773 5.888C260.211 5.68267 260.692 5.58 261.215 5.58C261.737 5.58 262.218 5.68267 262.657 5.888C263.105 6.09333 263.487 6.36867 263.805 6.714C264.131 7.05933 264.383 7.46067 264.561 7.918C264.747 8.37533 264.841 8.86067 264.841 9.374C264.841 9.878 264.752 10.3587 264.575 10.816C264.397 11.2733 264.145 11.6747 263.819 12.02C263.501 12.3653 263.119 12.6407 262.671 12.846C262.232 13.042 261.747 13.14 261.215 13.14ZM258.569 9.388C258.569 9.79867 258.639 10.1813 258.779 10.536C258.919 10.8813 259.105 11.1893 259.339 11.46C259.581 11.7213 259.861 11.9267 260.179 12.076C260.505 12.2253 260.851 12.3 261.215 12.3C261.579 12.3 261.919 12.2253 262.237 12.076C262.563 11.9173 262.848 11.7073 263.091 11.446C263.333 11.1753 263.525 10.8627 263.665 10.508C263.805 10.1533 263.875 9.77067 263.875 9.36C263.875 8.95867 263.805 8.58067 263.665 8.226C263.525 7.862 263.333 7.54933 263.091 7.288C262.848 7.01733 262.563 6.80733 262.237 6.658C261.919 6.49933 261.579 6.42 261.215 6.42C260.851 6.42 260.51 6.49933 260.193 6.658C259.875 6.80733 259.595 7.01733 259.353 7.288C259.11 7.55867 258.919 7.876 258.779 8.24C258.639 8.59467 258.569 8.97733 258.569 9.388ZM271.599 6.434H268.085V13H267.147V5.706H271.599V6.434ZM282.238 5.706H283.302L280.544 9.234L283.54 13H282.476L279.9 9.668H278.864V13H277.926V5.706H278.864V8.926H279.816L282.238 5.706ZM289.005 5.706C289.266 5.706 289.504 5.75267 289.719 5.846C289.943 5.93933 290.134 6.07 290.293 6.238C290.461 6.39667 290.587 6.58333 290.671 6.798C290.764 7.01267 290.811 7.246 290.811 7.498C290.811 7.666 290.788 7.834 290.741 8.002C290.704 8.17 290.643 8.33333 290.559 8.492C290.475 8.64133 290.368 8.78133 290.237 8.912C290.106 9.03333 289.952 9.13133 289.775 9.206C290.186 9.318 290.508 9.53267 290.741 9.85C290.974 10.1673 291.091 10.55 291.091 10.998C291.091 11.2967 291.035 11.5673 290.923 11.81C290.82 12.0527 290.671 12.2627 290.475 12.44C290.288 12.6173 290.064 12.7573 289.803 12.86C289.542 12.9533 289.257 13 288.949 13H285.435V5.706H289.005ZM288.627 8.926C289.01 8.926 289.313 8.80467 289.537 8.562C289.761 8.31933 289.873 8.01133 289.873 7.638C289.873 7.31133 289.78 7.02667 289.593 6.784C289.406 6.54133 289.117 6.42 288.725 6.42H286.359V8.926H288.627ZM288.851 12.286C289.047 12.286 289.224 12.2487 289.383 12.174C289.551 12.0993 289.691 12.0013 289.803 11.88C289.915 11.7493 290.004 11.6047 290.069 11.446C290.134 11.2873 290.167 11.1193 290.167 10.942C290.167 10.606 290.05 10.3073 289.817 10.046C289.593 9.78467 289.28 9.654 288.879 9.654H286.359V12.286H288.851ZM295.255 13.14C294.91 13.14 294.588 13.084 294.289 12.972C294 12.8507 293.743 12.6873 293.519 12.482C293.304 12.2767 293.136 12.0387 293.015 11.768C292.894 11.488 292.833 11.1893 292.833 10.872C292.833 10.5547 292.908 10.2607 293.057 9.99C293.206 9.71933 293.416 9.486 293.687 9.29C293.958 9.094 294.28 8.94467 294.653 8.842C295.026 8.73 295.437 8.674 295.885 8.674C296.258 8.674 296.636 8.70667 297.019 8.772C297.402 8.83733 297.742 8.93067 298.041 9.052V8.394C298.041 7.75 297.859 7.24133 297.495 6.868C297.131 6.48533 296.627 6.294 295.983 6.294C295.61 6.294 295.227 6.36867 294.835 6.518C294.443 6.66733 294.046 6.882 293.645 7.162L293.309 6.532C294.252 5.89733 295.166 5.58 296.053 5.58C296.968 5.58 297.686 5.83667 298.209 6.35C298.732 6.86333 298.993 7.57267 298.993 8.478V11.768C298.993 12.0293 299.11 12.16 299.343 12.16V13C299.184 13.028 299.063 13.042 298.979 13.042C298.736 13.042 298.545 12.9813 298.405 12.86C298.274 12.7387 298.204 12.5707 298.195 12.356L298.167 11.782C297.831 12.2207 297.406 12.5567 296.893 12.79C296.389 13.0233 295.843 13.14 295.255 13.14ZM295.479 12.412C295.974 12.412 296.426 12.3187 296.837 12.132C297.257 11.9453 297.574 11.698 297.789 11.39C297.873 11.306 297.934 11.2173 297.971 11.124C298.018 11.0213 298.041 10.928 298.041 10.844V9.654C297.724 9.53267 297.392 9.43933 297.047 9.374C296.711 9.30867 296.366 9.276 296.011 9.276C295.339 9.276 294.793 9.416 294.373 9.696C293.953 9.976 293.743 10.3447 293.743 10.802C293.743 11.026 293.785 11.236 293.869 11.432C293.962 11.628 294.084 11.8007 294.233 11.95C294.392 12.09 294.578 12.202 294.793 12.286C295.008 12.37 295.236 12.412 295.479 12.412ZM305.502 13.14C304.886 13.14 304.34 12.986 303.864 12.678C303.397 12.3607 303.019 11.964 302.73 11.488V15.982H301.778V5.706H302.632V7.12C302.93 6.66267 303.318 6.294 303.794 6.014C304.27 5.72467 304.788 5.58 305.348 5.58C305.852 5.58 306.314 5.68733 306.734 5.902C307.154 6.10733 307.518 6.38733 307.826 6.742C308.134 7.08733 308.372 7.48867 308.54 7.946C308.717 8.40333 308.806 8.87467 308.806 9.36C308.806 9.87333 308.726 10.3587 308.568 10.816C308.409 11.2733 308.18 11.6747 307.882 12.02C307.592 12.3653 307.242 12.6407 306.832 12.846C306.43 13.042 305.987 13.14 305.502 13.14ZM305.236 12.3C305.628 12.3 305.982 12.216 306.3 12.048C306.626 11.88 306.902 11.6607 307.126 11.39C307.359 11.11 307.536 10.7973 307.658 10.452C307.779 10.0973 307.84 9.73333 307.84 9.36C307.84 8.968 307.77 8.59467 307.63 8.24C307.49 7.88533 307.298 7.57267 307.056 7.302C306.813 7.03133 306.524 6.81667 306.188 6.658C305.861 6.49933 305.506 6.42 305.124 6.42C304.881 6.42 304.624 6.47133 304.354 6.574C304.092 6.66733 303.845 6.798 303.612 6.966C303.388 7.12467 303.192 7.316 303.024 7.54C302.865 7.75467 302.767 7.98333 302.73 8.226V10.466C302.842 10.7273 302.982 10.97 303.15 11.194C303.327 11.418 303.523 11.614 303.738 11.782C303.962 11.9407 304.2 12.0667 304.452 12.16C304.704 12.2533 304.965 12.3 305.236 12.3ZM313.506 13H312.582V6.532H310.02V5.706H316.068V6.532H313.506V13ZM319.059 11.656L323.413 5.706H324.183V13H323.245V7.162L318.975 13H318.121V5.706H319.059V11.656ZM330.748 13.14C330.132 13.14 329.586 12.986 329.11 12.678C328.643 12.3607 328.265 11.964 327.976 11.488V15.982H327.024V5.706H327.878V7.12C328.177 6.66267 328.564 6.294 329.04 6.014C329.516 5.72467 330.034 5.58 330.594 5.58C331.098 5.58 331.56 5.68733 331.98 5.902C332.4 6.10733 332.764 6.38733 333.072 6.742C333.38 7.08733 333.618 7.48867 333.786 7.946C333.963 8.40333 334.052 8.87467 334.052 9.36C334.052 9.87333 333.973 10.3587 333.814 10.816C333.655 11.2733 333.427 11.6747 333.128 12.02C332.839 12.3653 332.489 12.6407 332.078 12.846C331.677 13.042 331.233 13.14 330.748 13.14ZM330.482 12.3C330.874 12.3 331.229 12.216 331.546 12.048C331.873 11.88 332.148 11.6607 332.372 11.39C332.605 11.11 332.783 10.7973 332.904 10.452C333.025 10.0973 333.086 9.73333 333.086 9.36C333.086 8.968 333.016 8.59467 332.876 8.24C332.736 7.88533 332.545 7.57267 332.302 7.302C332.059 7.03133 331.77 6.81667 331.434 6.658C331.107 6.49933 330.753 6.42 330.37 6.42C330.127 6.42 329.871 6.47133 329.6 6.574C329.339 6.66733 329.091 6.798 328.858 6.966C328.634 7.12467 328.438 7.316 328.27 7.54C328.111 7.75467 328.013 7.98333 327.976 8.226V10.466C328.088 10.7273 328.228 10.97 328.396 11.194C328.573 11.418 328.769 11.614 328.984 11.782C329.208 11.9407 329.446 12.0667 329.698 12.16C329.95 12.2533 330.211 12.3 330.482 12.3Z" fill="white"/>
<path d="M477.24 7.47H478.752L482 3.06H483.12L479.634 7.848L483.484 13H482.364L478.836 8.338H477.24V13H476.274V3.06H477.24V7.47ZM488.034 13.14C487.502 13.14 487.016 13.042 486.578 12.846C486.139 12.6407 485.756 12.3653 485.43 12.02C485.112 11.6747 484.865 11.2733 484.688 10.816C484.51 10.3587 484.422 9.878 484.422 9.374C484.422 8.86067 484.51 8.37533 484.688 7.918C484.874 7.46067 485.126 7.05933 485.444 6.714C485.77 6.36867 486.153 6.09333 486.592 5.888C487.03 5.68267 487.511 5.58 488.034 5.58C488.556 5.58 489.037 5.68267 489.476 5.888C489.924 6.09333 490.306 6.36867 490.624 6.714C490.95 7.05933 491.202 7.46067 491.38 7.918C491.566 8.37533 491.66 8.86067 491.66 9.374C491.66 9.878 491.571 10.3587 491.394 10.816C491.216 11.2733 490.964 11.6747 490.638 12.02C490.32 12.3653 489.938 12.6407 489.49 12.846C489.051 13.042 488.566 13.14 488.034 13.14ZM485.388 9.388C485.388 9.79867 485.458 10.1813 485.598 10.536C485.738 10.8813 485.924 11.1893 486.158 11.46C486.4 11.7213 486.68 11.9267 486.998 12.076C487.324 12.2253 487.67 12.3 488.034 12.3C488.398 12.3 488.738 12.2253 489.056 12.076C489.382 11.9173 489.667 11.7073 489.91 11.446C490.152 11.1753 490.344 10.8627 490.484 10.508C490.624 10.1533 490.694 9.77067 490.694 9.36C490.694 8.95867 490.624 8.58067 490.484 8.226C490.344 7.862 490.152 7.54933 489.91 7.288C489.667 7.01733 489.382 6.80733 489.056 6.658C488.738 6.49933 488.398 6.42 488.034 6.42C487.67 6.42 487.329 6.49933 487.012 6.658C486.694 6.80733 486.414 7.01733 486.172 7.288C485.929 7.55867 485.738 7.876 485.598 8.24C485.458 8.59467 485.388 8.97733 485.388 9.388ZM494.904 8.856H498.992V5.706H499.93V13H498.992V9.654H494.904V13H493.966V5.706H494.904V8.856ZM505.476 13H504.552V6.532H501.99V5.706H508.038V6.532H505.476V13ZM511.774 13.14C511.429 13.14 511.107 13.084 510.808 12.972C510.519 12.8507 510.262 12.6873 510.038 12.482C509.823 12.2767 509.655 12.0387 509.534 11.768C509.413 11.488 509.352 11.1893 509.352 10.872C509.352 10.5547 509.427 10.2607 509.576 9.99C509.725 9.71933 509.935 9.486 510.206 9.29C510.477 9.094 510.799 8.94467 511.172 8.842C511.545 8.73 511.956 8.674 512.404 8.674C512.777 8.674 513.155 8.70667 513.538 8.772C513.921 8.83733 514.261 8.93067 514.56 9.052V8.394C514.56 7.75 514.378 7.24133 514.014 6.868C513.65 6.48533 513.146 6.294 512.502 6.294C512.129 6.294 511.746 6.36867 511.354 6.518C510.962 6.66733 510.565 6.882 510.164 7.162L509.828 6.532C510.771 5.89733 511.685 5.58 512.572 5.58C513.487 5.58 514.205 5.83667 514.728 6.35C515.251 6.86333 515.512 7.57267 515.512 8.478V11.768C515.512 12.0293 515.629 12.16 515.862 12.16V13C515.703 13.028 515.582 13.042 515.498 13.042C515.255 13.042 515.064 12.9813 514.924 12.86C514.793 12.7387 514.723 12.5707 514.714 12.356L514.686 11.782C514.35 12.2207 513.925 12.5567 513.412 12.79C512.908 13.0233 512.362 13.14 511.774 13.14ZM511.998 12.412C512.493 12.412 512.945 12.3187 513.356 12.132C513.776 11.9453 514.093 11.698 514.308 11.39C514.392 11.306 514.453 11.2173 514.49 11.124C514.537 11.0213 514.56 10.928 514.56 10.844V9.654C514.243 9.53267 513.911 9.43933 513.566 9.374C513.23 9.30867 512.885 9.276 512.53 9.276C511.858 9.276 511.312 9.416 510.892 9.696C510.472 9.976 510.262 10.3447 510.262 10.802C510.262 11.026 510.304 11.236 510.388 11.432C510.481 11.628 510.603 11.8007 510.752 11.95C510.911 12.09 511.097 12.202 511.312 12.286C511.527 12.37 511.755 12.412 511.998 12.412ZM522.608 5.706H523.672L520.914 9.234L523.91 13H522.846L520.27 9.668H519.234V13H518.296V5.706H519.234V8.926H520.186L522.608 5.706ZM528.494 13H527.57V6.532H525.008V5.706H531.056V6.532H528.494V13ZM533.109 5.706H534.047V8.296H535.629C535.965 8.296 536.282 8.34733 536.581 8.45C536.879 8.55267 537.141 8.702 537.365 8.898C537.589 9.094 537.766 9.34133 537.897 9.64C538.027 9.92933 538.093 10.2653 538.093 10.648C538.093 11.0307 538.027 11.3713 537.897 11.67C537.766 11.9593 537.589 12.202 537.365 12.398C537.141 12.594 536.879 12.7433 536.581 12.846C536.282 12.9487 535.965 13 535.629 13H533.109V5.706ZM539.003 5.706H539.927V13H539.003V5.706ZM535.629 12.188C536.114 12.188 536.487 12.0527 536.749 11.782C537.019 11.502 537.155 11.124 537.155 10.648C537.155 10.172 537.019 9.79867 536.749 9.528C536.478 9.248 536.105 9.108 535.629 9.108H534.047V12.188H535.629Z" fill="white"/>
<path d="M377.24 11.53L383.4 3.06H384.212V13H383.232V4.67L377.17 13H376.274V3.06H377.24V11.53ZM392.977 13H392.053V6.532H388.175V13H387.237V5.706H392.977V13ZM398.919 13.14C398.387 13.14 397.902 13.042 397.463 12.846C397.025 12.6407 396.642 12.3653 396.315 12.02C395.998 11.6747 395.751 11.2733 395.573 10.816C395.396 10.3587 395.307 9.878 395.307 9.374C395.307 8.86067 395.396 8.37533 395.573 7.918C395.76 7.46067 396.012 7.05933 396.329 6.714C396.656 6.36867 397.039 6.09333 397.477 5.888C397.916 5.68267 398.397 5.58 398.919 5.58C399.442 5.58 399.923 5.68267 400.361 5.888C400.809 6.09333 401.192 6.36867 401.509 6.714C401.836 7.05933 402.088 7.46067 402.265 7.918C402.452 8.37533 402.545 8.86067 402.545 9.374C402.545 9.878 402.457 10.3587 402.279 10.816C402.102 11.2733 401.85 11.6747 401.523 12.02C401.206 12.3653 400.823 12.6407 400.375 12.846C399.937 13.042 399.451 13.14 398.919 13.14ZM396.273 9.388C396.273 9.79867 396.343 10.1813 396.483 10.536C396.623 10.8813 396.81 11.1893 397.043 11.46C397.286 11.7213 397.566 11.9267 397.883 12.076C398.21 12.2253 398.555 12.3 398.919 12.3C399.283 12.3 399.624 12.2253 399.941 12.076C400.268 11.9173 400.553 11.7073 400.795 11.446C401.038 11.1753 401.229 10.8627 401.369 10.508C401.509 10.1533 401.579 9.77067 401.579 9.36C401.579 8.95867 401.509 8.58067 401.369 8.226C401.229 7.862 401.038 7.54933 400.795 7.288C400.553 7.01733 400.268 6.80733 399.941 6.658C399.624 6.49933 399.283 6.42 398.919 6.42C398.555 6.42 398.215 6.49933 397.897 6.658C397.58 6.80733 397.3 7.01733 397.057 7.288C396.815 7.55867 396.623 7.876 396.483 8.24C396.343 8.59467 396.273 8.97733 396.273 9.388ZM407.212 13H406.288V6.532H403.726V5.706H409.774V6.532H407.212V13ZM414.607 13.14C414.075 13.14 413.585 13.042 413.137 12.846C412.699 12.6407 412.316 12.3653 411.989 12.02C411.663 11.6653 411.406 11.2593 411.219 10.802C411.042 10.3447 410.953 9.85467 410.953 9.332C410.953 8.81867 411.042 8.338 411.219 7.89C411.406 7.43267 411.658 7.036 411.975 6.7C412.302 6.35467 412.689 6.084 413.137 5.888C413.585 5.68267 414.071 5.58 414.593 5.58C415.125 5.58 415.611 5.68267 416.049 5.888C416.497 6.084 416.88 6.35467 417.197 6.7C417.515 7.04533 417.762 7.442 417.939 7.89C418.117 8.338 418.205 8.814 418.205 9.318C418.205 9.39267 418.205 9.46733 418.205 9.542C418.205 9.61667 418.201 9.668 418.191 9.696H411.947C411.975 10.088 412.064 10.452 412.213 10.788C412.372 11.1147 412.573 11.3993 412.815 11.642C413.058 11.8847 413.333 12.076 413.641 12.216C413.959 12.3467 414.295 12.412 414.649 12.412C414.883 12.412 415.116 12.3793 415.349 12.314C415.583 12.2487 415.797 12.16 415.993 12.048C416.189 11.936 416.367 11.8007 416.525 11.642C416.684 11.474 416.805 11.292 416.889 11.096L417.715 11.32C417.603 11.5907 417.445 11.838 417.239 12.062C417.034 12.2767 416.796 12.468 416.525 12.636C416.255 12.7947 415.956 12.916 415.629 13C415.303 13.0933 414.962 13.14 414.607 13.14ZM417.295 8.968C417.267 8.576 417.174 8.22133 417.015 7.904C416.866 7.57733 416.67 7.29733 416.427 7.064C416.194 6.83067 415.919 6.64867 415.601 6.518C415.293 6.38733 414.962 6.322 414.607 6.322C414.253 6.322 413.917 6.38733 413.599 6.518C413.282 6.64867 413.002 6.83067 412.759 7.064C412.526 7.29733 412.335 7.57733 412.185 7.904C412.045 8.23067 411.961 8.58533 411.933 8.968H417.295ZM424.7 5.706H425.764L423.006 9.234L426.002 13H424.938L422.362 9.668H421.326V13H420.388V5.706H421.326V8.926H422.278L424.7 5.706ZM429.621 13.14C429.276 13.14 428.954 13.084 428.655 12.972C428.366 12.8507 428.109 12.6873 427.885 12.482C427.67 12.2767 427.502 12.0387 427.381 11.768C427.26 11.488 427.199 11.1893 427.199 10.872C427.199 10.5547 427.274 10.2607 427.423 9.99C427.572 9.71933 427.782 9.486 428.053 9.29C428.324 9.094 428.646 8.94467 429.019 8.842C429.392 8.73 429.803 8.674 430.251 8.674C430.624 8.674 431.002 8.70667 431.385 8.772C431.768 8.83733 432.108 8.93067 432.407 9.052V8.394C432.407 7.75 432.225 7.24133 431.861 6.868C431.497 6.48533 430.993 6.294 430.349 6.294C429.976 6.294 429.593 6.36867 429.201 6.518C428.809 6.66733 428.412 6.882 428.011 7.162L427.675 6.532C428.618 5.89733 429.532 5.58 430.419 5.58C431.334 5.58 432.052 5.83667 432.575 6.35C433.098 6.86333 433.359 7.57267 433.359 8.478V11.768C433.359 12.0293 433.476 12.16 433.709 12.16V13C433.55 13.028 433.429 13.042 433.345 13.042C433.102 13.042 432.911 12.9813 432.771 12.86C432.64 12.7387 432.57 12.5707 432.561 12.356L432.533 11.782C432.197 12.2207 431.772 12.5567 431.259 12.79C430.755 13.0233 430.209 13.14 429.621 13.14ZM429.845 12.412C430.34 12.412 430.792 12.3187 431.203 12.132C431.623 11.9453 431.94 11.698 432.155 11.39C432.239 11.306 432.3 11.2173 432.337 11.124C432.384 11.0213 432.407 10.928 432.407 10.844V9.654C432.09 9.53267 431.758 9.43933 431.413 9.374C431.077 9.30867 430.732 9.276 430.377 9.276C429.705 9.276 429.159 9.416 428.739 9.696C428.319 9.976 428.109 10.3447 428.109 10.802C428.109 11.026 428.151 11.236 428.235 11.432C428.328 11.628 428.45 11.8007 428.599 11.95C428.758 12.09 428.944 12.202 429.159 12.286C429.374 12.37 429.602 12.412 429.845 12.412Z" fill="white"/>
</svg>
