<svg width="363" height="36" viewBox="0 0 363 36" fill="none" xmlns="http://www.w3.org/2000/svg">
<path d="M0.123047 4.25V3.49414C2.74805 3.58789 4.45898 3.63477 5.25586 3.63477C6.7793 3.63477 8.61914 3.58789 10.7754 3.49414V4.25C9.24023 4.25 8.47266 4.47852 8.47266 4.93555C8.47266 5.12305 8.56641 5.35156 8.75391 5.62109L14.1152 13.4434L16.7695 9.85742C17.9062 8.41602 18.4746 7.20312 18.4746 6.21875C18.4746 5.62109 18.2461 5.1582 17.7891 4.83008C17.3438 4.49023 16.6992 4.29102 15.8555 4.23242V3.51172C17.2148 3.58203 18.7207 3.61719 20.373 3.61719C21.8379 3.61719 22.9453 3.58203 23.6953 3.51172V4.23242C22.2188 4.6543 20.707 5.9082 19.1602 7.99414L14.5547 14.1113L23.0098 26.4512C23.502 27.1543 23.8887 27.623 24.1699 27.8574C24.4512 28.0801 24.832 28.209 25.3125 28.2441V29C22.7812 28.9062 21.1406 28.8594 20.3906 28.8594C19.4766 28.8594 17.543 28.9062 14.5898 29V28.2441C15.4336 28.2441 16.0371 28.2031 16.4004 28.1211C16.7754 28.0391 16.9629 27.8809 16.9629 27.6465C16.9629 27.4941 16.875 27.2832 16.6992 27.0137L10.6523 18.1367L7.76953 22.0742C6.66797 23.5508 6.11719 24.8047 6.11719 25.8359C6.11719 26.5742 6.38672 27.1543 6.92578 27.5762C7.47656 27.9863 8.23242 28.2207 9.19336 28.2793V29C7.82227 28.9297 5.92383 28.8945 3.49805 28.8945C2.05664 28.8945 0.955078 28.9297 0.193359 29V28.2793C1.83398 27.7402 3.56836 26.2754 5.39648 23.8848L10.1777 17.4336L2.42578 6.04297C1.93359 5.33984 1.54688 4.87695 1.26562 4.6543C0.984375 4.41992 0.603516 4.28516 0.123047 4.25ZM25.2246 19.7012C25.2246 17.9668 25.4355 16.4609 25.8574 15.1836C26.291 13.8945 26.9062 12.8691 27.7031 12.1074C28.5 11.3457 29.4199 10.7832 30.4629 10.4199C31.5176 10.0566 32.707 9.875 34.0312 9.875C35.3672 9.875 36.5566 10.0566 37.5996 10.4199C38.6543 10.7832 39.5801 11.3457 40.377 12.1074C41.1738 12.8691 41.7832 13.8945 42.2051 15.1836C42.6387 16.4609 42.8555 17.9668 42.8555 19.7012C42.8555 21.4473 42.6387 22.959 42.2051 24.2363C41.7832 25.5137 41.1738 26.5332 40.377 27.2949C39.5801 28.0566 38.6543 28.6191 37.5996 28.9824C36.5566 29.334 35.3672 29.5098 34.0312 29.5098C32.6953 29.5098 31.5059 29.334 30.4629 28.9824C29.4199 28.6191 28.5 28.0566 27.7031 27.2949C26.9062 26.5332 26.291 25.5137 25.8574 24.2363C25.4355 22.959 25.2246 21.4473 25.2246 19.7012ZM31.5703 12.8457C30.9609 14.334 30.6562 16.6191 30.6562 19.7012C30.6562 22.7832 30.9609 25.0684 31.5703 26.5566C32.1797 28.0449 33 28.7891 34.0312 28.7891C35.0742 28.7891 35.9004 28.0449 36.5098 26.5566C37.1191 25.0684 37.4238 22.7832 37.4238 19.7012C37.4238 16.6191 37.1191 14.334 36.5098 12.8457C35.9004 11.3457 35.0742 10.5957 34.0312 10.5957C33 10.5957 32.1797 11.3457 31.5703 12.8457ZM45.1582 10.4199H48.9902C49.3652 10.4199 50.209 10.4434 51.5215 10.4902C52.8457 10.5254 53.9004 10.543 54.6855 10.543C55.4707 10.543 56.5312 10.5195 57.8672 10.4727C59.2148 10.4258 60.0762 10.4023 60.4512 10.4023H64.2656C64.1016 12.3008 64.0195 13.9824 64.0195 15.4473C64.0195 16.4902 64.0547 17.3047 64.125 17.8906H63.2988C62.5254 13.4023 60.9258 11.1582 58.5 11.1582H57.3047V25.291C57.3047 26.4043 57.5859 27.1777 58.1484 27.6113C58.7109 28.0332 59.5605 28.2441 60.6973 28.2441V29C57.416 28.9062 55.4297 28.8594 54.7383 28.8594C53.9766 28.8594 51.9785 28.9062 48.7441 29V28.2441C49.916 28.2441 50.7715 28.0625 51.3105 27.6992C51.8496 27.3242 52.1191 26.5918 52.1191 25.502V11.1582H50.8008C49.6992 11.1582 48.75 11.6738 47.9531 12.7051C47.168 13.7246 46.5645 15.459 46.1426 17.9082H45.2988C45.3809 17.3691 45.4219 16.5547 45.4219 15.4648C45.4219 14.1406 45.334 12.459 45.1582 10.4199ZM66.0938 29V28.2441C66.9492 28.2441 67.5469 28.0625 67.8867 27.6992C68.2266 27.3242 68.3965 26.6445 68.3965 25.6602V13.7598C68.3965 12.7637 68.2266 12.084 67.8867 11.7207C67.5469 11.3457 66.9492 11.1582 66.0938 11.1582V10.4023C68.8359 10.5078 70.418 10.5605 70.8398 10.5605C71.3203 10.5605 72.8789 10.5078 75.5156 10.4023V11.1582C74.7891 11.1582 74.2852 11.3457 74.0039 11.7207C73.7227 12.084 73.582 12.7637 73.582 13.7598V24.9746L80.4551 13.3555C80.4199 12.5234 80.2559 11.9492 79.9629 11.6328C79.6699 11.3164 79.1836 11.1582 78.5039 11.1582V10.4023C81.0352 10.5078 82.5234 10.5605 82.9688 10.5605C83.3906 10.5605 85.0488 10.5078 87.9434 10.4023V11.1582C87.0879 11.1582 86.4902 11.3457 86.1504 11.7207C85.8105 12.084 85.6406 12.7637 85.6406 13.7598V25.6602C85.6406 26.6445 85.8105 27.3242 86.1504 27.6992C86.4902 28.0625 87.0879 28.2441 87.9434 28.2441V29C85.5059 28.9062 83.918 28.8594 83.1797 28.8594C82.4531 28.8594 80.8945 28.9062 78.5039 29V28.2441C79.2305 28.2441 79.7344 28.0625 80.0156 27.6992C80.3086 27.3242 80.4551 26.6445 80.4551 25.6602V14.709L73.5996 26.3457C73.6582 27.0605 73.834 27.5586 74.127 27.8398C74.4199 28.1094 74.8828 28.2441 75.5156 28.2441V29C73.2656 28.9062 71.7773 28.8594 71.0508 28.8594C70.2773 28.8594 68.625 28.9062 66.0938 29ZM89.7363 10.4199H93.5684C93.9434 10.4199 94.7871 10.4434 96.0996 10.4902C97.4238 10.5254 98.4785 10.543 99.2637 10.543C100.049 10.543 101.109 10.5195 102.445 10.4727C103.793 10.4258 104.654 10.4023 105.029 10.4023H108.844C108.68 12.3008 108.598 13.9824 108.598 15.4473C108.598 16.4902 108.633 17.3047 108.703 17.8906H107.877C107.104 13.4023 105.504 11.1582 103.078 11.1582H101.883V25.291C101.883 26.4043 102.164 27.1777 102.727 27.6113C103.289 28.0332 104.139 28.2441 105.275 28.2441V29C101.994 28.9062 100.008 28.8594 99.3164 28.8594C98.5547 28.8594 96.5566 28.9062 93.3223 29V28.2441C94.4941 28.2441 95.3496 28.0625 95.8887 27.6992C96.4277 27.3242 96.6973 26.5918 96.6973 25.502V11.1582H95.3789C94.2773 11.1582 93.3281 11.6738 92.5312 12.7051C91.7461 13.7246 91.1426 15.459 90.7207 17.9082H89.877C89.959 17.3691 90 16.5547 90 15.4648C90 14.1406 89.9121 12.459 89.7363 10.4199ZM111.129 19.877C111.129 16.6426 111.932 14.1699 113.537 12.459C115.154 10.7363 117.287 9.875 119.936 9.875C124.447 9.875 126.703 12.541 126.703 17.873H116.631C116.584 18.3418 116.561 18.9102 116.561 19.5781C116.561 20.7852 116.695 21.8516 116.965 22.7773C117.234 23.6914 117.598 24.418 118.055 24.957C118.512 25.4844 119.01 25.8828 119.549 26.1523C120.088 26.4102 120.656 26.5391 121.254 26.5391C123.234 26.5391 124.811 25.5781 125.982 23.6562L126.633 23.9023C126.41 24.6172 126.094 25.2969 125.684 25.9414C125.285 26.5742 124.793 27.166 124.207 27.7168C123.633 28.2676 122.93 28.7012 122.098 29.0176C121.277 29.3457 120.387 29.5098 119.426 29.5098C116.895 29.5098 114.879 28.7012 113.379 27.084C111.879 25.4551 111.129 23.0527 111.129 19.877ZM116.525 17.1875H122.168C122.203 15.3125 122.01 13.7539 121.588 12.5117C121.178 11.2695 120.557 10.6484 119.725 10.6484C118.869 10.6484 118.154 11.1816 117.58 12.248C117.018 13.3145 116.666 14.9609 116.525 17.1875ZM137.25 29V28.2441C138.105 28.2441 138.703 28.0625 139.043 27.6992C139.383 27.3242 139.553 26.6445 139.553 25.6602V13.7598C139.553 12.7637 139.383 12.084 139.043 11.7207C138.703 11.3457 138.105 11.1582 137.25 11.1582V10.4023C139.992 10.5078 141.574 10.5605 141.996 10.5605C142.582 10.5605 143.496 10.5371 144.738 10.4902C145.992 10.4316 147.023 10.4023 147.832 10.4023C148.652 10.4023 149.643 10.4316 150.803 10.4902C151.963 10.5371 152.854 10.5605 153.475 10.5605C153.885 10.5605 155.543 10.5078 158.449 10.4023V11.1582C157.594 11.1582 156.996 11.3457 156.656 11.7207C156.316 12.084 156.146 12.7637 156.146 13.7598V25.6602C156.146 26.6445 156.316 27.3242 156.656 27.6992C156.996 28.0625 157.594 28.2441 158.449 28.2441V29C156.012 28.9062 154.424 28.8594 153.686 28.8594C152.959 28.8594 151.4 28.9062 149.01 29V28.2441C149.736 28.2441 150.24 28.0625 150.521 27.6992C150.814 27.3242 150.961 26.6445 150.961 25.6602V13.7598C150.961 12.7637 150.814 12.084 150.521 11.7207C150.24 11.3457 149.736 11.1582 149.01 11.1582H146.672C145.945 11.1582 145.441 11.3457 145.16 11.7207C144.879 12.084 144.738 12.7637 144.738 13.7598V25.6602C144.738 26.6445 144.879 27.3242 145.16 27.6992C145.441 28.0625 145.945 28.2441 146.672 28.2441V29C144.422 28.9062 142.934 28.8594 142.207 28.8594C141.434 28.8594 139.781 28.9062 137.25 29ZM160.682 19.7012C160.682 17.9668 160.893 16.4609 161.314 15.1836C161.748 13.8945 162.363 12.8691 163.16 12.1074C163.957 11.3457 164.877 10.7832 165.92 10.4199C166.975 10.0566 168.164 9.875 169.488 9.875C170.824 9.875 172.014 10.0566 173.057 10.4199C174.111 10.7832 175.037 11.3457 175.834 12.1074C176.631 12.8691 177.24 13.8945 177.662 15.1836C178.096 16.4609 178.312 17.9668 178.312 19.7012C178.312 21.4473 178.096 22.959 177.662 24.2363C177.24 25.5137 176.631 26.5332 175.834 27.2949C175.037 28.0566 174.111 28.6191 173.057 28.9824C172.014 29.334 170.824 29.5098 169.488 29.5098C168.152 29.5098 166.963 29.334 165.92 28.9824C164.877 28.6191 163.957 28.0566 163.16 27.2949C162.363 26.5332 161.748 25.5137 161.314 24.2363C160.893 22.959 160.682 21.4473 160.682 19.7012ZM167.027 12.8457C166.418 14.334 166.113 16.6191 166.113 19.7012C166.113 22.7832 166.418 25.0684 167.027 26.5566C167.637 28.0449 168.457 28.7891 169.488 28.7891C170.531 28.7891 171.357 28.0449 171.967 26.5566C172.576 25.0684 172.881 22.7832 172.881 19.7012C172.881 16.6191 172.576 14.334 171.967 12.8457C171.357 11.3457 170.531 10.5957 169.488 10.5957C168.457 10.5957 167.637 11.3457 167.027 12.8457ZM181.002 19.7891C181.002 16.6367 181.822 14.1992 183.463 12.4766C185.115 10.7422 187.26 9.875 189.896 9.875C191.736 9.875 193.242 10.2441 194.414 10.9824C195.035 11.3574 195.521 11.8379 195.873 12.4238C196.225 12.998 196.4 13.6367 196.4 14.3398C196.4 15.1953 196.131 15.8926 195.592 16.4316C195.064 16.9707 194.385 17.2402 193.553 17.2402C192.697 17.2402 192.018 17 191.514 16.5195C191.021 16.0273 190.775 15.377 190.775 14.5684C190.775 13.8418 190.998 13.2148 191.443 12.6875C191.9 12.1602 192.469 11.8027 193.148 11.6152C192.961 11.3691 192.668 11.1641 192.27 11C191.883 10.8359 191.455 10.7539 190.986 10.7539C190.014 10.7539 189.182 11.1289 188.49 11.8789C187.799 12.6289 187.283 13.6367 186.943 14.9023C186.604 16.168 186.434 17.627 186.434 19.2793C186.434 20.6152 186.568 21.7754 186.838 22.7598C187.107 23.7324 187.471 24.4883 187.928 25.0273C188.396 25.5547 188.9 25.9414 189.439 26.1875C189.979 26.4219 190.564 26.5391 191.197 26.5391C193.154 26.5391 194.725 25.5605 195.908 23.6035L196.541 23.832C196.318 24.5469 196.014 25.2266 195.627 25.8711C195.252 26.5039 194.777 27.1016 194.203 27.6641C193.641 28.2266 192.943 28.6719 192.111 29C191.279 29.3398 190.371 29.5098 189.387 29.5098C188.191 29.5098 187.09 29.3164 186.082 28.9297C185.086 28.543 184.201 27.9629 183.428 27.1895C182.666 26.416 182.068 25.4023 181.635 24.1484C181.213 22.8828 181.002 21.4297 181.002 19.7891ZM198.334 29V28.2793C199.318 28.2324 199.975 27.8457 200.303 27.1191C200.643 26.3809 200.812 25.2324 200.812 23.6738V14.1816C200.812 13.2793 200.748 12.6289 200.619 12.2305C200.49 11.8203 200.262 11.5391 199.934 11.3867C199.617 11.2227 199.084 11.123 198.334 11.0879V10.3672C199.154 10.4492 200.127 10.4902 201.252 10.4902C202.857 10.4902 204.463 10.4492 206.068 10.3672L210.973 22.6543L215.947 10.4902C216.533 10.5137 217.506 10.5254 218.865 10.5254C219.592 10.5254 221.062 10.4844 223.277 10.4023V11.1406C222.41 11.1641 221.83 11.3574 221.537 11.7207C221.256 12.0723 221.115 12.8105 221.115 13.9355V25.4668C221.115 26.5801 221.256 27.3184 221.537 27.6816C221.83 28.0449 222.41 28.2383 223.277 28.2617V29C221.742 28.918 220.201 28.877 218.654 28.877C216.873 28.877 215.174 28.918 213.557 29V28.2617C214.506 28.2383 215.139 28.0449 215.455 27.6816C215.783 27.3184 215.947 26.5801 215.947 25.4668V12.459L209.074 29.1758H208.494L201.604 12.6699V23.8848C201.604 25.4082 201.832 26.5098 202.289 27.1895C202.746 27.8691 203.637 28.2324 204.961 28.2793V29C203.953 28.9297 202.717 28.8945 201.252 28.8945C200.01 28.8945 199.037 28.9297 198.334 29ZM225.65 19.7012C225.65 17.9668 225.861 16.4609 226.283 15.1836C226.717 13.8945 227.332 12.8691 228.129 12.1074C228.926 11.3457 229.846 10.7832 230.889 10.4199C231.943 10.0566 233.133 9.875 234.457 9.875C235.793 9.875 236.982 10.0566 238.025 10.4199C239.08 10.7832 240.006 11.3457 240.803 12.1074C241.6 12.8691 242.209 13.8945 242.631 15.1836C243.064 16.4609 243.281 17.9668 243.281 19.7012C243.281 21.4473 243.064 22.959 242.631 24.2363C242.209 25.5137 241.6 26.5332 240.803 27.2949C240.006 28.0566 239.08 28.6191 238.025 28.9824C236.982 29.334 235.793 29.5098 234.457 29.5098C233.121 29.5098 231.932 29.334 230.889 28.9824C229.846 28.6191 228.926 28.0566 228.129 27.2949C227.332 26.5332 226.717 25.5137 226.283 24.2363C225.861 22.959 225.65 21.4473 225.65 19.7012ZM231.996 12.8457C231.387 14.334 231.082 16.6191 231.082 19.7012C231.082 22.7832 231.387 25.0684 231.996 26.5566C232.605 28.0449 233.426 28.7891 234.457 28.7891C235.5 28.7891 236.326 28.0449 236.936 26.5566C237.545 25.0684 237.85 22.7832 237.85 19.7012C237.85 16.6191 237.545 14.334 236.936 12.8457C236.326 11.3457 235.5 10.5957 234.457 10.5957C233.426 10.5957 232.605 11.3457 231.996 12.8457ZM245.584 10.4199H249.416C249.791 10.4199 250.635 10.4434 251.947 10.4902C253.271 10.5254 254.326 10.543 255.111 10.543C255.896 10.543 256.957 10.5195 258.293 10.4727C259.641 10.4258 260.502 10.4023 260.877 10.4023H264.691C264.527 12.3008 264.445 13.9824 264.445 15.4473C264.445 16.4902 264.48 17.3047 264.551 17.8906H263.725C262.951 13.4023 261.352 11.1582 258.926 11.1582H257.73V25.291C257.73 26.4043 258.012 27.1777 258.574 27.6113C259.137 28.0332 259.986 28.2441 261.123 28.2441V29C257.842 28.9062 255.855 28.8594 255.164 28.8594C254.402 28.8594 252.404 28.9062 249.17 29V28.2441C250.342 28.2441 251.197 28.0625 251.736 27.6992C252.275 27.3242 252.545 26.5918 252.545 25.502V11.1582H251.227C250.125 11.1582 249.176 11.6738 248.379 12.7051C247.594 13.7246 246.99 15.459 246.568 17.9082H245.725C245.807 17.3691 245.848 16.5547 245.848 15.4648C245.848 14.1406 245.76 12.459 245.584 10.4199ZM266.344 11.1582V10.4023C267.105 10.4727 267.85 10.5078 268.576 10.5078C270.709 10.5078 272.461 10.3379 273.832 9.99805V13.373C274.324 12.2363 275.057 11.3691 276.029 10.7715C277.002 10.1738 278.133 9.875 279.422 9.875C281.332 9.875 282.879 10.6484 284.062 12.1953C285.258 13.7422 285.855 15.9629 285.855 18.8574C285.855 22.291 285.111 24.9277 283.623 26.7676C282.135 28.5957 280.102 29.5098 277.523 29.5098C275.977 29.5098 274.746 29.123 273.832 28.3496V31.9531C273.832 33.0078 274.096 33.7402 274.623 34.1504C275.162 34.5605 275.977 34.7656 277.066 34.7656V35.5215C273.434 35.416 271.418 35.3633 271.02 35.3633C270.691 35.3633 269.18 35.416 266.484 35.5215V34.7656C267.293 34.7656 267.855 34.5898 268.172 34.2383C268.488 33.8867 268.646 33.2422 268.646 32.3047V14.3223C268.646 13.209 268.471 12.4062 268.119 11.9141C267.779 11.4102 267.188 11.1582 266.344 11.1582ZM273.832 27.5586C274.383 28.2031 275.145 28.5254 276.117 28.5254C277.652 28.5254 278.754 27.7637 279.422 26.2402C280.09 24.7051 280.424 22.4785 280.424 19.5605C280.424 17.5801 280.289 15.9746 280.02 14.7441C279.762 13.5137 279.41 12.6523 278.965 12.1602C278.52 11.668 277.969 11.4219 277.312 11.4219C276.492 11.4219 275.76 11.7031 275.115 12.2656C274.471 12.8281 274.043 13.6074 273.832 14.6035V27.5586ZM288.562 19.877C288.562 16.6426 289.365 14.1699 290.971 12.459C292.588 10.7363 294.721 9.875 297.369 9.875C301.881 9.875 304.137 12.541 304.137 17.873H294.064C294.018 18.3418 293.994 18.9102 293.994 19.5781C293.994 20.7852 294.129 21.8516 294.398 22.7773C294.668 23.6914 295.031 24.418 295.488 24.957C295.945 25.4844 296.443 25.8828 296.982 26.1523C297.521 26.4102 298.09 26.5391 298.688 26.5391C300.668 26.5391 302.244 25.5781 303.416 23.6562L304.066 23.9023C303.844 24.6172 303.527 25.2969 303.117 25.9414C302.719 26.5742 302.227 27.166 301.641 27.7168C301.066 28.2676 300.363 28.7012 299.531 29.0176C298.711 29.3457 297.82 29.5098 296.859 29.5098C294.328 29.5098 292.312 28.7012 290.812 27.084C289.312 25.4551 288.562 23.0527 288.562 19.877ZM293.959 17.1875H299.602C299.637 15.3125 299.443 13.7539 299.021 12.5117C298.611 11.2695 297.99 10.6484 297.158 10.6484C296.303 10.6484 295.588 11.1816 295.014 12.248C294.451 13.3145 294.1 14.9609 293.959 17.1875ZM306.334 10.4199H310.166C310.541 10.4199 311.385 10.4434 312.697 10.4902C314.021 10.5254 315.076 10.543 315.861 10.543C316.646 10.543 317.707 10.5195 319.043 10.4727C320.391 10.4258 321.252 10.4023 321.627 10.4023H325.441C325.277 12.3008 325.195 13.9824 325.195 15.4473C325.195 16.4902 325.23 17.3047 325.301 17.8906H324.475C323.701 13.4023 322.102 11.1582 319.676 11.1582H318.48V25.291C318.48 26.4043 318.762 27.1777 319.324 27.6113C319.887 28.0332 320.736 28.2441 321.873 28.2441V29C318.592 28.9062 316.605 28.8594 315.914 28.8594C315.152 28.8594 313.154 28.9062 309.92 29V28.2441C311.092 28.2441 311.947 28.0625 312.486 27.6992C313.025 27.3242 313.295 26.5918 313.295 25.502V11.1582H311.977C310.875 11.1582 309.926 11.6738 309.129 12.7051C308.344 13.7246 307.74 15.459 307.318 17.9082H306.475C306.557 17.3691 306.598 16.5547 306.598 15.4648C306.598 14.1406 306.51 12.459 306.334 10.4199ZM327.393 29V28.2441C328.166 28.2441 328.705 28.0625 329.01 27.6992C329.314 27.3242 329.467 26.6445 329.467 25.6602V13.7598C329.467 12.7637 329.326 12.084 329.045 11.7207C328.764 11.3457 328.26 11.1582 327.533 11.1582V10.4023C330.064 10.5078 331.559 10.5605 332.016 10.5605C332.461 10.5605 334.107 10.5078 336.955 10.4023V11.1582C336.1 11.1582 335.502 11.3457 335.162 11.7207C334.822 12.084 334.652 12.7637 334.652 13.7598V18.207C336.105 18.1836 337.084 18.1719 337.588 18.1719C340.342 18.1719 342.398 18.6465 343.758 19.5957C345.117 20.5332 345.797 21.7695 345.797 23.3047C345.797 23.8672 345.697 24.4121 345.498 24.9395C345.311 25.4668 344.994 25.9824 344.549 26.4863C344.104 26.9785 343.553 27.4121 342.896 27.7871C342.24 28.1504 341.402 28.4434 340.383 28.666C339.375 28.8887 338.244 29 336.99 29C336.545 29 335.783 28.9766 334.705 28.9297C333.627 28.8828 332.748 28.8594 332.068 28.8594C331.389 28.8594 329.83 28.9062 327.393 29ZM334.652 26.416C334.652 27.1426 334.781 27.6289 335.039 27.875C335.297 28.1211 335.795 28.2441 336.533 28.2441C339.158 28.2441 340.471 26.7031 340.471 23.6211C340.471 21.9336 340.072 20.7266 339.275 20C338.49 19.2617 337.166 18.8926 335.303 18.8926H334.652V26.416ZM346.535 5.23438C346.535 3.98047 347.221 2.94336 348.592 2.12305C350.021 1.26758 351.814 0.839844 353.971 0.839844C356.561 0.839844 358.646 1.42578 360.229 2.59766C361.811 3.75781 362.602 5.33398 362.602 7.32617C362.602 9.29492 361.781 10.959 360.141 12.3184C358.5 13.6777 356.262 14.6797 353.426 15.3242V20.5801H352.705V14.9902C353.678 14.5684 354.486 14.0996 355.131 13.584C355.787 13.0566 356.273 12.4883 356.59 11.8789C356.918 11.2578 357.141 10.6543 357.258 10.0684C357.387 9.4707 357.451 8.78516 357.451 8.01172C357.451 5.83203 357.053 4.21484 356.256 3.16016C355.471 2.09375 354.398 1.56055 353.039 1.56055C351.516 1.56055 350.479 1.87109 349.928 2.49219C351.264 2.92578 351.932 3.80469 351.932 5.12891C351.932 5.89062 351.662 6.51758 351.123 7.00977C350.596 7.49023 349.91 7.73047 349.066 7.73047C348.316 7.73047 347.707 7.49023 347.238 7.00977C346.77 6.51758 346.535 5.92578 346.535 5.23438ZM350.051 26.7324C350.051 25.8652 350.326 25.1855 350.877 24.6934C351.428 24.1895 352.172 23.9375 353.109 23.9375C354.059 23.9375 354.809 24.1895 355.359 24.6934C355.91 25.1855 356.186 25.8652 356.186 26.7324C356.186 27.5879 355.91 28.2676 355.359 28.7715C354.809 29.2637 354.059 29.5098 353.109 29.5098C352.172 29.5098 351.428 29.2637 350.877 28.7715C350.326 28.2676 350.051 27.5879 350.051 26.7324Z" fill="#D4C17F"/>
</svg>
